<svg width="1230" height="530" viewBox="0 0 325.437 140.229" xmlns="http://www.w3.org/2000/svg"><g style="clip-rule:evenodd;fill-rule:evenodd;stroke-linecap:round;stroke-linejoin:round;stroke-miterlimit:1.5"><path d="M389.511 732.315c-3.537 22.19 4.495 39.099 9.488 45.33 14.432 18.009 39.7 42.829 55.944 61.96 2.571 3.027 11.766 13.707 15.015 16.473 1.968 1.676-3.408-2.984-5.104-4.802-3.913-4.193-7.247-8.768-10.973-12.818-.733-.797 2.052 2.317 2.052 2.317s.195 10.58.301 12.29c.483 7.816.727 8.345 3.812 15.73 6.984 16.718 13.473 26.692 24.138 41.286 4.516 6.18 15.506 28.609 15.506 28.609-1.06-.853 30.486-2.656 0 0-2.541.222-5.289 1.594-6.495 2.476-3.64 2.66-13.998 10.622-4.384 11.523 4.538.426 29.412.357 29.451-2.069.277-17.096-5.341-18.391-6.046-20.736-5.305-17.635 4.84-43.374 6.523-58.263.124-1.097 1.041-2.141-3.276-1.15-.253.058-5.568.567-9.153.349-6.366-.389-12.887-.679-.657-.002 10.67.592 15.024-3.438 22.616-7.193 18.423-9.113 28.76-58.179 28.76-72.465" style="fill:#fffef4" transform="matrix(.33496 0 0 .32076 -129.794 -168.15)"/><path d="M452.73 838.823c.053.138.144.286.281.442.322.368 1.283 1.445 1.776 1.997l.291 11.881c.252 4.076.45 6.225.988 8.343.521 2.047 1.363 4.068 2.917 7.79 3.527 8.443 6.928 15.178 10.797 21.648 3.838 6.42 8.137 12.578 13.479 19.89 1.607 2.199 4.041 6.486 6.501 11.066 3.336 6.211 6.715 12.961 8.162 15.879-.694.166-1.379.387-2.024.638-1.422.553-2.651 1.247-3.373 1.775-1.685 1.231-4.762 3.571-6.748 5.853-1.204 1.383-1.994 2.79-2.1 3.952-.16 1.76.94 3.539 5.029 3.923 3.197.3 16.396.36 24.09-.465 2.787-.299 4.897-.771 5.731-1.309.667-.431.896-.989.904-1.485.105-6.446-.618-10.713-1.594-13.653-.977-2.946-2.214-4.612-3.205-5.784-.603-.714-1.137-1.144-1.3-1.684-1.553-5.166-1.729-11.048-1.193-17.139 1.28-14.525 6.59-30.218 7.766-40.617.05-.438.184-.872.172-1.206-.015-.419-.134-.778-.392-1.071 2.945-1.356 5.7-3.079 9.089-4.755 7.601-3.759 13.945-14.073 18.718-26.098 6.994-17.618 10.719-38.839 10.719-47.474 0-.68-.529-1.232-1.182-1.232-.653 0-1.182.552-1.182 1.232 0 8.465-3.681 29.263-10.534 46.536-4.516 11.379-10.358 21.263-17.55 24.821-4.782 2.366-8.255 4.858-12.89 6.185-1.985.569-4.187.917-6.81.948a30.825 30.825 0 0 1-1.684-.052 546.2 546.2 0 0 0-7.24-.398l-.72-.029c-7.874-.481-11.439-.134-11.606.444-.75.347.407.817 3.901 1.282 1.899.298 4.441.557 7.527.711l.841.057c.778.052 2.767.169 6.508.376.921.051 1.797.069 2.633.056.902.002 1.833-.023 2.718-.062 2.486-.108 4.614-.333 4.775-.37a15.586 15.586 0 0 1 1.873-.307l-.016.12c-1.177 10.415-6.487 26.133-7.767 40.68-.565 6.431-.348 12.637 1.293 18.091.187.623.608 1.213 1.212 1.911.906 1.049 2.281 2.508 3.315 5.624.892 2.687 1.531 6.558 1.473 12.344-.334.12-1.042.359-1.677.48-2.704.518-7.179.809-11.722.953-6.286.199-12.7.113-14.785-.082-.902-.085-1.604-.231-2.13-.445-.355-.145-.61-.291-.734-.509-.083-.148-.062-.32-.02-.504.072-.305.225-.626.426-.962 1.511-2.519 5.469-5.483 7.408-6.9.609-.444 1.649-1.021 2.848-1.488.968-.376 2.039-.681 3.074-.771 6.642-.579 10.348-.948 12.092-1.16.767-.093 1.197-.167 1.358-.211.355-.097.523-.27.592-.342.363-.379.387-.783.315-1.124-.037-.176-.209-.856-1.056-.961-.778-.096-9.153.466-12.38.994-.162.027-.313.055-.454.085-1.268-2.564-4.89-9.831-8.465-16.483-2.525-4.7-5.031-9.093-6.681-11.349-5.294-7.244-9.555-13.343-13.358-19.702-3.813-6.376-7.165-13.014-10.641-21.334-1.487-3.559-2.305-5.486-2.803-7.444-.509-2.001-.678-4.032-.917-7.881l-.218-8.908c1.505 1.821 3.005 3.673 4.574 5.489.742.859 1.5 1.71 2.28 2.545.854.915 2.626 2.54 3.95 3.737.476.466.899.858 1.252 1.159 2.15 1.83 3.137 1.807 3.245 1.079.336-.344.133-1.12-1.109-2.33a5.987 5.987 0 0 0-.407-.405c-.271-.244-.815-.73-1.466-1.318-1.32-1.292-3.069-3.168-4.888-5.178-3.518-3.887-7.291-8.28-8.794-10.049-12.687-14.938-30.872-33.344-45.11-49.271-3.986-4.459-7.662-8.723-10.817-12.66-2.927-3.651-6.906-11.072-8.882-21.103-1.321-6.704-1.743-14.571-.357-23.264.103-.65-.319-1.265-.943-1.373-.624-.107-1.214.332-1.318.982-1.438 9.018-.999 17.179.371 24.135 2.074 10.539 6.291 18.319 9.365 22.156 3.179 3.968 6.882 8.265 10.898 12.758 13.725 15.357 31.124 33.021 43.715 47.654z" style="fill:#424242" transform="matrix(.33496 0 0 .32076 -129.794 -168.15)"/><path d="M401.7 726.935c-10.838 20.592.965 54.763 6.588 62.264 13.85 18.476 30.411 31.275 46.655 50.406 2.571 3.027 11.766 13.707 15.015 16.473 1.968 1.676-3.408-2.984-5.104-4.802-3.913-4.193-7.247-8.768-10.973-12.818-.733-.797 2.052 2.317 2.052 2.317s.195 10.58.301 12.29c.483 7.816.727 8.345 3.812 15.73 6.984 16.718 13.473 26.692 24.138 41.286 4.516 6.18 15.506 28.609 15.506 28.609-1.06-.853 30.486-2.656 0 0-2.541.222-5.289 1.594-6.495 2.476-3.64 2.66-13.998 10.622-4.384 11.523 4.538.426 29.412.357 29.451-2.069.277-17.096-5.341-18.391-6.046-20.736-5.305-17.635 4.84-43.374 6.523-58.263.124-1.097 1.041-2.141-3.276-1.15-.253.058-5.568.567-9.153.349-6.366-.389-12.887-.679-.657-.002 10.67.592 15.742-2.245 22.616-7.193 12.199-8.784 35.768-34.264 38.742-72.812" style="fill:#fffef4" transform="matrix(-.33496 0 0 .32076 243.92 -168.15)"/><path d="M469.49 854.036c.651.588 1.195 1.074 1.466 1.318.145.131.281.267.407.405 1.243 1.211 1.446 1.987 1.109 2.33-.108.728-1.095.751-3.245-1.079a25.658 25.658 0 0 1-1.252-1.159c-1.324-1.197-3.096-2.822-3.95-3.737a87.825 87.825 0 0 1-2.28-2.545c-1.569-1.816-3.069-3.668-4.574-5.489l.218 8.908c.239 3.849.408 5.88.917 7.881.498 1.958 1.316 3.885 2.803 7.444 3.476 8.32 6.828 14.958 10.641 21.334 3.803 6.359 8.064 12.458 13.358 19.702 1.65 2.256 4.156 6.649 6.681 11.349 3.575 6.652 7.197 13.919 8.465 16.483.141-.03.292-.058.454-.085 3.227-.528 11.602-1.09 12.38-.994.847.105 1.019.785 1.056.961.072.341.048.745-.315 1.124-.07.072-.237.245-.592.342-.161.043-.591.117-1.358.211-1.744.212-5.45.581-12.092 1.16-1.035.09-2.106.395-3.074.771-1.199.467-2.239 1.043-2.848 1.488-1.939 1.417-5.897 4.381-7.408 6.9-.201.336-.354.656-.426.962-.043.184-.063.356.02.504.124.219.379.364.734.509.526.214 1.228.361 2.13.445 2.085.195 8.499.282 14.785.082 4.543-.144 9.018-.435 11.722-.953.635-.121 1.343-.36 1.678-.48.057-5.786-.582-9.657-1.474-12.344-1.034-3.116-2.408-4.575-3.315-5.624-.603-.698-1.025-1.288-1.212-1.911-1.641-5.454-1.858-11.66-1.292-18.091 1.279-14.546 6.589-30.265 7.766-40.68l.016-.12c-.455.045-1.125.135-1.873.307-.16.037-2.239.256-4.688.366-1.654.114-3.452.12-5.438.01-3.741-.208-5.73-.325-6.508-.376l-.841-.057c-3.085-.154-5.628-.413-7.525-.711-3.494-.464-4.651-.935-3.9-1.282.167-.578 3.731-.925 11.603-.444l.72.029a546.2 546.2 0 0 1 7.24.398c1.09.067 2.345.064 3.563.027.277-.009.552-.019.822-.03 2.454-.16 4.573-.571 6.521-1.207 3.674-1.201 6.74-3.198 10.314-5.772 7.082-5.1 18.04-15.91 26.465-31.687 5.902-11.051 10.56-24.539 11.769-40.215.052-.677.622-1.183 1.273-1.129.65.055 1.136.649 1.084 1.326-1.241 16.065-6.014 29.888-12.064 41.212-8.651 16.194-19.917 27.275-27.188 32.51-3.128 2.252-5.899 4.071-8.963 5.352.062.176.095.368.102.573.011.334-.123.768-.172 1.206-1.177 10.399-6.486 26.092-7.766 40.617-.536 6.091-.36 11.973 1.193 17.139.163.54.696.97 1.3 1.684.99 1.172 2.228 2.838 3.205 5.784.976 2.94 1.699 7.207 1.594 13.653-.008.495-.237 1.054-.905 1.485-.833.538-2.943 1.01-5.73 1.309-7.694.825-20.893.765-24.09.465-4.089-.384-5.189-2.163-5.028-3.923.105-1.162.895-2.569 2.099-3.952 1.986-2.282 5.063-4.622 6.748-5.853.722-.528 1.951-1.222 3.373-1.775.645-.251 1.33-.472 2.024-.638-1.447-2.919-4.825-9.668-8.162-15.879-2.46-4.58-4.894-8.867-6.501-11.066-5.342-7.312-9.641-13.47-13.479-19.89-3.869-6.47-7.27-13.205-10.797-21.648-1.554-3.722-2.396-5.743-2.917-7.79-.538-2.118-.736-4.267-.988-8.343l-.291-11.881a430.584 430.584 0 0 1-1.776-1.997l-.219-.251a456.248 456.248 0 0 1-8.283-9.227c-8.076-8.502-16.085-16.021-23.652-24.037-4.689-4.967-9.21-10.123-13.475-15.814-3.199-4.268-8.399-16.991-10.411-31.062-1.599-11.185-1.176-23.202 3.725-32.512.304-.578 1-.79 1.555-.473.555.316.758 1.042.454 1.619-4.672 8.879-4.99 20.349-3.464 31.013 1.94 13.551 6.872 25.832 9.953 29.942 4.211 5.616 8.675 10.705 13.304 15.607 10.581 11.205 22.021 21.446 33.31 34.739 1.503 1.769 5.276 6.162 8.794 10.049 1.819 2.011 3.568 3.886 4.888 5.178z" style="fill:#424242" transform="matrix(-.33496 0 0 .32076 243.92 -168.15)"/><path d="M435.832 789.552c-7.206 2.88 9.976 9.098 10.958 12.933 8.457 33.031 60.849 68.125 50.845 79.604-9.398 10.784-94.395-14.494-100.837-28.667-1.727-3.8-71.748-32.24-46.524-43.603" style="fill:#fffef4;stroke:#424242;stroke-width:3.02px" transform="matrix(.26193 0 0 .2612 -47.949 -178.73)"/><path d="M610.156 641.251c4.651 7.899-1.784 8.058 7.685 16.416 4.485 3.959 12.746 16.987 27.985 18.628 20.289 2.183 47.229 13.648 61.216 28.104 21.331 22.048 14.815 45.515-9.694 65.388-60.2 48.813-196.407 39.306-265.817 4.041-41.477-21.073-50.727-39.316-34.673-67.926 21.564-38.431 63.59-32.897 78.744-47.818" style="fill:#fffef4" transform="matrix(.33147 0 0 .35416 -128.433 -190.679)"/><path d="M609.141 641.771c1.966 3.339 1.801 5.201 1.862 6.959.04 1.162.168 2.286.828 3.649.748 1.544 2.216 3.428 5.214 6.074 3.013 2.66 7.73 9.366 15.078 14.046 3.796 2.418 8.28 4.302 13.57 4.872 10.054 1.082 21.757 4.476 32.675 9.385 10.848 4.878 20.923 11.253 27.81 18.372 10.676 11.036 14.231 22.422 11.874 33.524-2.243 10.567-9.793 20.844-21.47 30.311-30.317 24.58-80.045 34.216-130.686 33.243-49.406-.951-99.699-12.022-133.799-29.349-22.531-11.448-35.475-21.972-39.829-33.906-3.5-9.592-1.366-20.043 5.644-32.534 6.953-12.39 16.068-20.132 25.707-25.458 10.763-5.947 22.175-8.902 31.986-11.937 8.641-2.673 16.058-5.439 20.864-10.171a1.064 1.064 0 0 0-.045-1.576 1.255 1.255 0 0 0-1.689.042c-4.569 4.499-11.666 7.049-19.881 9.591-9.956 3.08-21.528 6.101-32.45 12.137-9.972 5.512-19.406 13.521-26.599 26.342-7.379 13.152-9.471 24.18-5.785 34.278 4.493 12.313 17.698 23.324 40.945 35.134 34.379 17.464 85.075 28.65 134.883 29.602 51.269.981 101.577-8.903 132.267-33.791 12.129-9.836 19.897-20.557 22.226-31.535 2.486-11.715-1.168-23.76-12.435-35.404-7.068-7.305-17.395-13.865-28.529-18.87-11.165-5.019-23.137-8.477-33.418-9.583-4.885-.525-9.022-2.275-12.528-4.508-7.223-4.598-11.832-11.215-14.794-13.829-2.676-2.362-4.027-4.014-4.694-5.392-.717-1.479-.608-2.614-.655-3.94-.06-1.718-.289-3.714-2.118-6.819-.307-.523-1.012-.714-1.572-.426-.56.287-.765.944-.457 1.467z" style="fill:#424242" transform="matrix(.33147 0 0 .35416 -128.433 -190.679)"/><path d="M407.978 806.7c-2.163.768 21.413-6.837 27.512-6.743 29.18.452 52.231 13.969 69.081 32.361 2.883 3.147 17.634 26.215 14.3 30.075-7.243 8.384-21.688 2.514-30.199.915-5.706-1.072-14.189-4.866-20.262-8.161-8.452-4.585-12.128-11.432-12.128-11.432" style="fill:#fffef4;stroke:#424242;stroke-width:3.05px" transform="matrix(.27628 .05427 -.04543 .22997 -14.986 -178.87)"/><path d="M600.916 644.659c.359 1.785.74 3.357 1.143 4.75 3.102 10.721 7.521 10.773 13.366 15.26 16.713 12.83 19.178 26.711 11.143 37.627-11.208 15.228-44.748 17.437-63.91.768-8.955-7.79-2.108-26.99-15.545-26.789-9.164.136-19.144 10.612-24.898 15.891-9.703 8.905-26.413 12.521-36.461 8.372-7.28-3.006-25.142-11.416-25.977-30.731-1.134-26.255 33.307-14.102 40.361-36.048" style="fill:#fffef4" transform="matrix(.29757 -.0372 .03783 .3009 -135.889 -135.192)"/><path d="M599.661 644.904c.172.857.349 1.666.531 2.43.206.862.417 1.667.635 2.421 1.429 4.94 3.15 7.729 5.116 9.711 2.452 2.471 5.336 3.623 8.694 6.202 6.962 5.345 11.395 10.859 13.543 16.271 2.769 6.978 1.662 13.748-2.654 19.611-5.786 7.858-17.77 12.03-30.463 11.837-11.145-.17-22.865-3.727-31.548-11.282-2.753-2.396-3.839-5.981-4.592-9.661-.848-4.149-1.263-8.436-2.643-11.641-1.514-3.518-4.074-5.886-9.187-5.811-3.927.059-8.012 1.864-11.87 4.414-5.429 3.589-10.426 8.635-13.896 11.819-4.475 4.105-10.496 7.038-16.618 8.557-6.647 1.648-13.421 1.643-18.45-.434-4.077-1.684-11.572-5.097-17.352-11.283-4.195-4.491-7.479-10.46-7.817-18.313-.312-7.244 2.25-11.348 6.249-14.047 5.117-3.455 12.369-4.757 18.878-7.256 6.692-2.569 12.618-6.332 15.179-14.297a1.3 1.3 0 0 0-.859-1.635 1.325 1.325 0 0 0-1.658.848c-2.282 7.102-7.652 10.37-13.618 12.661-6.701 2.574-14.141 3.98-19.409 7.538-4.653 3.143-7.752 7.868-7.387 16.298.371 8.557 3.942 15.063 8.514 19.955 6.092 6.517 13.973 10.138 18.269 11.912 5.48 2.261 12.858 2.349 20.098.551 6.546-1.625 12.974-4.781 17.757-9.172 3.392-3.113 8.264-8.06 13.57-11.569 3.409-2.255 6.989-3.93 10.46-3.982 3.753-.057 5.643 1.665 6.756 4.247 1.32 3.067 1.678 7.177 2.49 11.146.868 4.241 2.248 8.312 5.421 11.072 9.149 7.957 21.483 11.737 33.224 11.913 13.611.204 26.384-4.464 32.586-12.892 3.924-5.333 5.467-11.336 4.27-17.586-1.366-7.133-6.351-14.636-15.667-21.786-3.251-2.495-6.064-3.582-8.438-5.973-1.744-1.757-3.217-4.256-4.485-8.636a50.112 50.112 0 0 1-.606-2.306 68.414 68.414 0 0 1-.512-2.343 1.28 1.28 0 0 0-1.504-.992c-.693.135-1.144.8-1.007 1.483z" style="fill:#424242" transform="matrix(.29757 -.0372 .03783 .3009 -135.889 -135.192)"/><g transform="matrix(.35692 0 0 .29882 -70.306 -155.183)"><circle cx="351.309" cy="604.619" r="22.001" style="fill:#fffef4"/><path d="M351.309 581.297c-5.992.002-11.448 2.308-15.543 6.068a23.352 23.352 0 0 0-7.559 17.254 23.343 23.343 0 0 0 7.565 17.246c4.094 3.755 9.548 6.058 15.537 6.056 5.987-.002 11.44-2.307 15.532-6.064a23.328 23.328 0 0 0 7.552-17.238 23.313 23.313 0 0 0-7.558-17.229c-4.091-3.753-9.542-6.054-15.526-6.052zm0 2.602a20.95 20.95 0 0 1 14.209 5.528c4.11 3.774 6.709 9.178 6.707 15.192-.001 6.013-2.602 11.414-6.713 15.184a20.927 20.927 0 0 1-14.203 5.515 20.927 20.927 0 0 1-14.199-5.523c-4.106-3.77-6.702-9.168-6.701-15.176.002-6.006 2.6-11.401 6.707-15.168a20.913 20.913 0 0 1 14.193-5.511z" style="fill:#424242"/></g><path d="m566.784 555.805.127.065c.062.11.117.264.134.315-.268.273-.74.333-1.197.447-.834.209-1.684.432-2.3.859-.684.474-1.166 1.157-1.167 2.272 0 .517.181 1.033.491 1.539.372.606.959 1.208 1.411 1.816.218.294.472.566.399.871a7.006 7.006 0 0 1-.795.006c-.835-.064-1.75-.166-2.488-.022-.652.128-1.201.415-1.601.916-.521.653-.608 1.271-.475 1.853.175.77.913 1.519 1.67 2.216.193.177.381.352.536.531l.058.07a6.484 6.484 0 0 1-.475.12c-.641.125-1.353.231-1.914.401-.587.177-1.044.441-1.324.752-.328.363-.537.905-.579 1.572-.078 1.234.467 3.09.439 3.996-.018.602.497 1.104 1.15 1.12.652.016 1.196-.459 1.214-1.061.02-.709-.288-1.977-.414-3.107a4.928 4.928 0 0 1-.037-.824c.006-.093.033-.224.049-.293.12-.043.438-.153.668-.203.784-.17 1.689-.29 2.302-.511.818-.295 1.272-.793 1.381-1.359.121-.622-.071-1.226-.508-1.799-.417-.549-1.117-1.08-1.628-1.631-.171-.185-.411-.346-.233-.57.072-.09.198-.09.322-.104.204-.024.424-.02.648-.008.849.046 1.744.17 2.415.064.8-.125 1.394-.488 1.715-1.177.283-.605.287-1.195.102-1.775-.233-.728-.835-1.453-1.424-2.157a6.664 6.664 0 0 1-.573-.756c-.101-.163-.192-.319-.192-.486-.001-.274.078-.457.246-.574.506-.353 1.274-.434 1.942-.621.809-.226 1.517-.553 1.978-1.078.362-.413.506-.884.489-1.365-.02-.559-.282-1.138-.631-1.578-.245-.308-1.128-.759-1.388-.828-1.109-.296-1.469.653-1.498.899-.012.111-.108.606.523 1.015.134.087.281.144.432.172zm1.311-1.381c-.048-.163-.164-.35-.421-.518.203.133.346.316.421.518z" style="fill:#424242" transform="matrix(.30623 -.13534 .14714 .33105 -200.357 -95.418)"/><path d="m566.727 555.753.16.083c.084.142.154.365.169.415-.09.09-.219.143-.354.195-.255.1-.54.172-.829.244-.859.215-1.731.45-2.355.899-.655.471-1.127 1.14-1.128 2.223 0 .497.174.992.472 1.478.369.602.952 1.201 1.402 1.806.239.32.505.618.427.951a7.34 7.34 0 0 1-.745.001c-.836-.064-1.752-.165-2.492-.022-.674.129-1.24.423-1.652.939-.517.648-.607 1.257-.466 1.834.181.742.903 1.457 1.633 2.13.238.218.47.433.639.656l.023.03c-.15.043-.327.09-.471.118-.643.125-1.358.233-1.922.403-.603.182-1.071.453-1.359.771-.327.362-.538.907-.576 1.574-.072 1.232.467 3.072.44 3.972-.017.572.495 1.026 1.142 1.013.648-.013 1.187-.488 1.204-1.06.02-.703-.285-1.959-.412-3.081a5.143 5.143 0 0 1-.04-.841c.006-.101.036-.241.054-.318.125-.044.423-.145.632-.19.79-.17 1.702-.293 2.318-.516.825-.299 1.288-.79 1.399-1.363.114-.591-.068-1.165-.481-1.71-.414-.545-1.11-1.073-1.619-1.62-.205-.221-.479-.414-.266-.681.062-.078.173-.07.28-.082.202-.023.419-.018.642-.006.848.045 1.744.168 2.416.063.821-.127 1.432-.494 1.762-1.2.276-.59.282-1.165.097-1.731-.231-.712-.823-1.417-1.399-2.105-.373-.446-.79-.854-.79-1.312 0-.275.063-.463.229-.582.493-.357 1.254-.43 1.916-.614.828-.23 1.554-.564 2.025-1.101.36-.41.506-.879.484-1.357-.023-.53-.274-1.075-.604-1.491-.237-.298-1.092-.729-1.345-.797a1.293 1.293 0 0 0-.895.068c-.464.211-.683.541-.659.988.005.092-.008.447.477.762.127.083.269.137.417.164zm1.299-1.482z" style="fill:#424242" transform="matrix(.33718 -.02256 .04421 .37879 -155.843 -185.932)"/><path d="M550.296 569.711c-.2.11-.519.281-.73.369-.45.187-.856.356-1.067.489-.95.601-1.366 1.378-1.436 2.222-.084 1.008.386 2.134.977 3.078.294.468 1.005.66 1.588.428.583-.231.817-.799.523-1.267-.347-.551-.667-1.184-.73-1.791-.047-.446.059-.881.546-1.19.176-.112.56-.238.941-.404.512-.224 1.016-.495 1.34-.79.351-.32.535-.678.543-1.051.014-.582-.285-1.037-.808-1.408-.412-.293-1.016-.526-1.618-.766a5.337 5.337 0 0 1-.655-.298c-.126-.072-.261-.139-.281-.266-.078-.482.34-.744.769-1.001.812-.487 1.784-.909 2.389-1.476.47-.439.766-.951.788-1.582a1.788 1.788 0 0 0-.435-1.274c-.404-.476-1.074-.768-1.805-.996-.245-.076-.495-.147-.717-.241-.109-.046-.231-.081-.261-.188-.09-.326.037-.644.221-.96.348-.595.921-1.167 1.418-1.713.471-.518.881-1.019 1.101-1.486.355-.751.224-1.405-.11-1.895-.489-.716-1.442-1.097-2.318-1.032-.63.046-1.09.492-1.027.996.062.504.624.875 1.253.829.08-.006.102.088.113.171a.494.494 0 0 1-.06.269c-.201.424-.644.872-1.087 1.351-.508.55-1.027 1.127-1.373 1.716-.41.698-.586 1.417-.387 2.139.14.513.47.878.911 1.16.456.291 1.071.469 1.655.66.268.088.599.128.588.427-.009.227-.169.388-.359.537a5.27 5.27 0 0 1-.714.445c-.93.506-1.929 1.006-2.449 1.702-.346.462-.526 1.001-.421 1.663.078.499.353.898.758 1.23.509.418 1.284.709 1.985.994.145.059.285.119.411.183z" style="fill:#424242" transform="matrix(.29894 -.15082 .18619 .37403 -218.316 -112.165)"/><path d="M534.413 558.542a1.424 1.424 0 0 0-.8.006c-.407.124-.564.307-.628.378a.941.941 0 0 0-.232.886c.051.223.173.447.422.642.107.084.351.258.782.299.141.013.855.023 1.01.025.176.072.342.164.456.297.087.101.125.23.119.386-.014.392-.381.935-.747 1.55-.645 1.083-1.39 2.286-1.617 3.252-.228.972.007 1.783.676 2.356.445.381 1.16.598 2.05.583.459-.008.984-.069 1.507-.128.324-.036.791-.049 1.098-.053-.041.059-.095.115-.149.171-.155.161-.344.31-.543.457-.724.533-1.535 1.045-1.993 1.625-.433.547-.624 1.151-.482 1.837.155.747.731 1.234 1.683 1.415.252.048.627.067 1.024.069a3.503 3.503 0 0 0-.192.157c-1.367 1.204-2.282 2.503-2.361 3.868-.057.979.28 2.017 1.242 3.108.451.51 1.273.619 1.836.245.562-.375.654-1.092.203-1.602-.613-.692-.79-1.324-.611-1.93.215-.726.825-1.392 1.57-2.051.334-.297 1.064-.779 1.51-1.289.364-.417.571-.866.591-1.286a1.26 1.26 0 0 0-.232-.803c-.191-.276-.493-.514-.942-.647-.332-.099-.848-.135-1.438-.104-.249.013-.605.024-.933.031.091-.075.189-.149.29-.223.701-.515 1.503-1.027 1.983-1.623.405-.502.625-1.058.585-1.688-.065-1.016-.649-1.548-1.47-1.83-.723-.247-1.844-.181-2.926-.057-.336.039-.815.057-1.098.064a.687.687 0 0 1 .007-.053c.049-.279.176-.586.333-.908.559-1.146 1.469-2.421 1.847-3.361.149-.37.228-.708.237-.995a2.593 2.593 0 0 0-.657-1.838c-.411-.477-.989-.837-1.629-1.075a2.955 2.955 0 0 0-.8-.151 9.257 9.257 0 0 0-.581-.012z" style="fill:#424242" transform="matrix(.23164 -.19565 .21267 .27213 -197.516 -30.7)"/><path d="M524.486 576.988a2.33 2.33 0 0 1-.127.347c-.151.346-.338.681-.481 1.021a9.216 9.216 0 0 0-.429 1.268c-.251.991-.179 1.651-.012 2.066.213.528.605.843 1.165.893.654.059 1.66-.332 2.543-.585.232-.066.454-.12.652-.139a2.66 2.66 0 0 1-.098.18c-.405.664-.982 1.406-1.301 2.064-.327.677-.408 1.331-.259 1.86.142.505.504.925 1.064 1.155.533.218 1.294.289 1.976.362.403.043.772.071.991.189.222.121.352.353.453.608.276.7.378 1.557.597 2.15.177.478.614.676.975.442.361-.235.51-.813.333-1.291-.273-.737-.396-1.842-.819-2.634-.241-.45-.557-.821-.991-1.055-.4-.216-1.158-.292-1.918-.374-.395-.043-.955-.204-1.212-.283.069-.154.171-.372.267-.527.444-.718 1.035-1.485 1.311-2.121.376-.868.324-1.617-.151-2.172-.26-.305-.648-.477-1.135-.464-.483.012-1.105.205-1.722.406-.435.142-.868.287-1.23.329-.06.008-.137.005-.2.001.014-.126.038-.307.077-.46l.321-.951c.168-.401.396-.794.556-1.207.099-.254.176-.514.221-.783.097-.584.015-1.023-.143-1.357a1.416 1.416 0 0 0-.849-.764c-.643-.216-1.741-.005-2.712.193a8.767 8.767 0 0 1-.91.153 1.931 1.931 0 0 1-.228.001c.014-.098.036-.23.061-.316.081-.274.191-.526.265-.689.011-.024.328-.54.409-.671a.873.873 0 0 0 .143-.192c.23-.415.163-1.001-.151-1.306-.079-.077-.584-.4-1.003.187-.181.255-.589.973-.607 1.013-.231.504-.618 1.571-.539 2.354.057.566.276 1.053.765 1.34.188.11.465.175.809.162.711-.025 1.856-.376 2.75-.44a2.5 2.5 0 0 1 .523.037z" style="fill:#424242" transform="matrix(.49693 -.21963 .16635 .37428 -313.514 -79.356)"/><g transform="matrix(.20346 -.08826 .04994 .11447 -15.482 -37.092)"><circle cx="179.701" cy="676.279" r="10.709" style="fill:#fffef4"/><path d="M179.701 662.406c-3.398.007-6.46 1.477-8.639 3.758-2.469 2.586-3.843 6.263-3.841 10.115.002 3.849 1.377 7.522 3.847 10.097 2.179 2.271 5.239 3.732 8.633 3.726 3.392-.006 6.449-1.474 8.624-3.751 2.46-2.576 3.83-6.236 3.828-10.072-.002-3.834-1.373-7.491-3.833-10.056-2.175-2.267-5.23-3.725-8.619-3.719zm0 6.229c2.2.004 4.23.734 5.846 1.987 1.782 1.382 3.121 3.231 3.119 5.657-.001 2.422-1.343 4.26-3.124 5.633a9.491 9.491 0 0 1-5.841 1.961 9.511 9.511 0 0 1-5.836-1.983c-1.77-1.372-3.103-3.202-3.102-5.611.002-2.407 1.338-4.225 3.108-5.589a9.477 9.477 0 0 1 5.83-1.957z" style="fill:#424242"/><g transform="translate(29.796)"><circle cx="179.701" cy="676.279" r="10.709" style="fill:#fffef4"/><path d="M179.701 662.406c-3.398.007-6.46 1.477-8.639 3.758-2.469 2.586-3.843 6.263-3.841 10.115.002 3.849 1.377 7.522 3.847 10.097 2.179 2.271 5.239 3.732 8.633 3.726 3.392-.006 6.449-1.474 8.624-3.751 2.46-2.576 3.83-6.236 3.828-10.072-.002-3.834-1.373-7.491-3.833-10.056-2.175-2.267-5.23-3.725-8.619-3.719zm0 6.229c2.2.004 4.23.734 5.846 1.987 1.782 1.382 3.121 3.231 3.119 5.657-.001 2.422-1.343 4.26-3.124 5.633a9.491 9.491 0 0 1-5.841 1.961 9.511 9.511 0 0 1-5.836-1.983c-1.77-1.372-3.103-3.202-3.102-5.611.002-2.407 1.338-4.225 3.108-5.589a9.477 9.477 0 0 1 5.83-1.957z" style="fill:#424242"/></g><path d="m191.16 673.351.118-.099a4.962 4.962 0 0 1 2.211-.931 6.398 6.398 0 0 1 1.869-.025 4.503 4.503 0 0 1 1.587.522c.155.171.882.969 1.134 1.218.488.483.888.518 1.017.519.986 0 1.785-1.417 1.785-3.163 0-1.33-.464-2.47-1.121-2.936-.234-.244-1.372-1.425-1.588-1.55a6.688 6.688 0 0 0-2.554-.844 8.369 8.369 0 0 0-2.457.077 7.132 7.132 0 0 0-1.643.499 7.534 7.534 0 0 0-1.626.971 4.812 4.812 0 0 0-.836.828 4.31 4.31 0 0 0-.504.833c.016-.035.065-.129.065-.129s-.355.7-.423.903a5.12 5.12 0 0 0-.216 2.228c.121 1.018.44 1.849 1.105 2.275.191.122.535.329 1.059.088.435-.196.789-.668 1.018-1.284zm-1.358-4.75zm.035.004-.018-.002.03.004z" style="fill:#424242"/><path d="M156.386 664.377c.157-.043.523-.13.765-.086.689.126 1.429.569 1.967 1.163.781.863 1.473 1.802 2.114 2.777 1.106 1.682 2.072 3.469 3.08 5.19.692 1.182 1.517 2.334 2.223 3.533.255.433.493.868.69 1.322.58 1.344 1.667 1.6 2.425.571.758-1.028.903-2.954.323-4.297a18.645 18.645 0 0 0-1.031-2.02c-.7-1.203-1.518-2.359-2.203-3.544-1.049-1.816-2.058-3.693-3.211-5.468-.767-1.182-1.596-2.317-2.532-3.366-1.472-1.649-3.778-2.613-5.379-1.964-1.304.527-2.247 1.923-2.615 4.197-.269 1.679.282 3.43 1.23 3.906.896.451 1.828-.399 2.154-1.914z" style="fill:#424242" transform="matrix(.99613 -.15574 .04958 .99613 -33.055 28.442)"/><path d="m222.135 676.268.274-.782c.202-.652.392-1.303.623-1.94.121-.335.256-.666.415-.99.696-1.417 1.493-2.891 2.415-4.269.815-1.219 1.731-2.361 2.765-3.313.425-.392.908-.804 1.443-1.081.396-.205.824-.332 1.279-.277.917.106 1.715-1.026 1.779-2.526.065-1.5-.627-2.804-1.544-2.91-.72-.079-1.407.051-2.054.32-.949.396-1.806 1.09-2.535 1.773-1.254 1.174-2.366 2.573-3.353 4.069-1.045 1.585-1.95 3.273-2.736 4.899a15.893 15.893 0 0 0-.67 1.615c-.264.741-.485 1.494-.716 2.252-.013.045-.226.631-.299.872-.605 2.004.445 3.4.589 3.541.763.752 1.756.349 2.216-.899.042-.115.079-.234.109-.354z" style="fill:#424242" transform="matrix(.21216 1.86135 -.64201 .22988 595.594 91.27)"/></g><path d="M890.658 681.514c3.578-2.191 23.855-.96 29.731-1.1 12.6-.3 33.301 1.083 45.876 1.737 5.465.285 14.431 21.95 14.129 26.82-.175 2.8-15.628 28.726-20.025 28.962-5.791.31-13.079-.466-17.751-.455-12.582.03-54.985-6.047-58.817-7.919-3.219-1.572-7.652-16.459-6.502-25.062 1.462-10.945 12.166-22.252 13.359-22.983z" style="fill:#fff3d5;stroke:#424242;stroke-width:4.83px" transform="matrix(.16293 -.00723 .00733 .16421 -90.165 -80.279)"/><path d="M894.089 683.48c4.498 1.826 6.9 11.887 6.793 27.573-.098 14.572-3.378 26.645-8.125 25.942-4.311-.638-7.833-14.962-7.031-28.677.921-15.733 4.748-26.305 8.363-24.838z" style="fill:#ecdfbe;stroke:#424242;stroke-width:2.36px" transform="matrix(.43999 -.0321 .01265 .1724 -330.055 -64.425)"/><path d="M1098.65 776.867c3.13-.062 5.67.329 7.34 1.403 2.16 1.387 4.06 2.914 4.91 3.209 3.35 1.156 5.64-.668 5.84-1.09.86-1.729-3.71-5.673-6.3-6.698-4.17-1.65-10.59.173-11.79 3.176z" style="fill:#fffef4;stroke:#424242;stroke-width:2.87px" transform="matrix(-.286 -.04775 -.04325 .2576 417.46 -122.864)"/><path d="M384.822 839.578c8.341 3.367 22.59-3.516 26.763-9.328 5.897-8.214 32.392-5.111 39.215-3.68 26.466 5.549 59.787 37.973 47.592 57.55-2.914 4.676-33.922 22.11-73.782.213-16.485-9.056-45.612-31.084-45.612-31.084s-.242-.17-7.684-.373c-6.503-.177-10.898-8.522-10.458-15.327.866-13.414 17.838-11.923 19.044-2.862 1.032 7.754 4.284 5.59 5.449 7.524 2.618 4.348 78.744 23.109 78.744 23.109s-13.572-2.003-23.234-12.487" style="fill:#fffef4;stroke:#424242;stroke-width:2.69px" transform="matrix(-.29168 .0573 .05652 .28608 122.782 -230.864)"/><path d="M460.218 794.994c-.004-.002-.558.311-.272.34 2.476.247 4.953.338 7.442.406 5.326.146 10.651.222 15.978.14 15.235-.235 30.436-1.136 45.635-2.172 47.425-3.234 94.797-7.3 142.216-10.652 99.498-7.033 199.352-9.267 299.022-12.53 29.717-.973 59.501-2.26 89.181-3.966 11.39-.655 18.9-2.614 30.3-2.614" style="fill:none;stroke:#424242;stroke-width:2.08px" transform="matrix(.263 0 0 .24485 -48.442 -165.72)"/><path d="M771.828 716.953c-4.33 27.172 31.119 96.072 40.441 105.986 24.783 26.357 54.073 42.568 48.533 40.104-1.58-.702-1.174-1.139-3.15-2.455-1.252-.835.74 2.458.961 3.343.63 2.53 5.442 12.623 15.058 32.627 5.785 12.036 25.553 37.466 37.152 51.244.024.029 4.403-2.181 8.697-1.872 4.414.317 6.579 4.716 6.355 4.105-1.284-3.51-8.567-5.769-13.612-2.83-2.094 1.219-4.231.466-14.784 5.85-2.066 1.054-7.547 7.743-5.472 8.785 11.764 5.903 34 4.002 35.591 2.684 3.533-2.926 1.852-9.302-1.261-13.838-1.655-2.41-2.799-3.311-3.827-3.854-.658-.347-1.768.459-1.289-2.203 2.754-15.289 4.115-36.054 10.957-67.748.077-.354-5.35 2.014-8.945 3.327-4.636 1.694-12.845.198-14.051-.172-1.444-.444-4.134-1.586-3.813-1.422 3.317 1.686 8.819 2.58 10.595 2.466 3.68-.236 4.428-.178 6.213-.553 1.019-.215 2.072-.792 4.736-1.405 11.941-2.749 27.406-20.458 32.424-109.737" style="fill:#fffef4" transform="matrix(.3166 0 0 .30318 -32.603 -152.999)"/><path d="M856.072 861.037c.012.068.029.137.05.208.227.778 1.161 2.422 1.307 3.006.325 1.307 1.727 4.594 4.316 10.157 2.483 5.333 6.068 12.812 10.83 22.722 2.549 5.304 7.783 13.191 13.853 21.546 7.275 10.015 15.75 20.714 22.175 28.423a38.118 38.118 0 0 0-4.31 1.427c-1.874.738-4.258 1.796-7.356 3.376-1.396.712-4.254 3.739-5.672 6.245-.622 1.1-.958 2.13-.952 2.872.009.922.395 1.594 1.159 1.977 4.953 2.486 11.71 3.646 18.076 4.03 6.987.422 13.493-.079 16.561-.689 1.199-.239 1.971-.569 2.258-.807 1.889-1.563 2.603-3.921 2.417-6.565-.208-2.965-1.575-6.308-3.442-9.027a23.292 23.292 0 0 0-.399-.566c-.48-1.132-1.472-2.179-2.79-3.004a8.128 8.128 0 0 0-1.083-.684 1.957 1.957 0 0 0-.249-.109l-.021-.011a21.334 21.334 0 0 1-.214-.107l-.213-.099c.013-.15.033-.32.064-.491 1.884-10.458 3.118-23.477 5.897-40.798a506.302 506.302 0 0 1 4.943-26.383c5.161-3.526 10.565-10.755 15.245-25.219 5.304-16.392 9.773-42.283 12.064-83.006.04-.717-.486-1.334-1.176-1.376-.689-.042-1.281.506-1.321 1.224-2.268 40.389-6.67 66.072-11.928 82.33-4.48 13.851-9.504 20.705-14.339 23.948a6.943 6.943 0 0 0-.941.27c-1.686.59-5.38 2.153-8.059 3.131-.259.095-.53.178-.81.251l-.081.018c-.646.136-1.145.211-1.717.265-.736.069-1.584.105-2.951.183-2.925-.029-5.777-.474-7.102-.757l-.31-.08-.324-.087-.282-.079c-1.02-.338-2.45-.918-3.102-1.177a8.42 8.42 0 0 0-.446-.168c-2.077-.624-4.359.646-.873 2.419 1.08.55 2.379 1.022 3.714 1.407a7.719 7.719 0 0 0 .912.247c.279.073.558.141.836.204 2.422.558 4.703.805 5.754.738.494-.032.935-.058 1.333-.081l.261.001c1.629-.004 3.26-.14 4.697-.477l.093-.019c.755-.159 1.531-.505 2.925-.926.51-.153 1.109-.317 1.832-.483a17.267 17.267 0 0 0 3.21-1.078 508.08 508.08 0 0 0-4.501 24.335c-2.774 17.3-4.003 30.303-5.884 40.748-.018.101-.034.199-.048.293a9.832 9.832 0 0 0-.353-.033 12.63 12.63 0 0 0-.891-.032c-2.357-.202-4.865.204-7.014 1.444-.194.074-.371.145-.528.209-6.472-7.721-15.272-18.796-22.787-29.139-5.961-8.203-11.114-15.939-13.618-21.147-4.758-9.896-8.339-17.365-10.819-22.691-2.237-4.805-3.569-7.821-4.033-9.276.123.064.258.128.407.194.537.239.872.328.998.341.598.064.913-.238 1.072-.422.185-.215.296-.474.313-.786a1.293 1.293 0 0 0-.252-.86c-.07-.098-.282-.323-.675-.61-.585-.428-1.774-1.221-3.449-2.35l-.017-.012-.004-.002-.82-.554c-8.56-5.791-27.501-18.993-44.348-36.908-5.645-6.003-20.904-33.809-31.002-60.693-6.411-17.067-10.778-33.754-9.114-44.199.109-.687-.338-1.338-.998-1.452-.66-.114-1.284.352-1.394 1.039-1.714 10.753 2.645 27.962 9.243 45.534 10.243 27.28 25.796 55.456 31.523 61.547 9.772 10.395 20.242 19.22 29.021 25.958a320.556 320.556 0 0 0 15.653 11.252zm62.513 86.144c-2.272.014-4.473.696-5.845 1.212a6.722 6.722 0 0 1-1.271.519l-.093.041a1.45 1.45 0 0 1-.443.116c-1.226.342-2.907.731-5.769 1.857-1.82.716-4.134 1.746-7.143 3.281-.694.354-1.798 1.454-2.832 2.698-.833 1.003-1.613 2.109-2.072 3.065a5.129 5.129 0 0 0-.294.851c4.669 2.26 10.951 3.283 16.868 3.639 5.617.339 10.912.068 14.24-.374.979-.129 1.781-.272 2.36-.42.239-.061.514-.162.585-.189 1.207-1.031 1.565-2.605 1.444-4.325-.179-2.54-1.39-5.387-2.989-7.717-.096-.14-.19-.274-.282-.403a1.33 1.33 0 0 1-.082-.085c-.052-.06-.217-.305-.485-.659-.395-.522-1.092-1.359-2.091-2.031l-.205-.103-.225-.105-.12-.052a4.212 4.212 0 0 1-.567-.09 1.858 1.858 0 0 1-.715-.363 10.887 10.887 0 0 0-1.974-.363z" style="fill:#424242" transform="matrix(.3166 0 0 .30318 -32.603 -152.999)"/><path d="M782.289 717.747c-.931 30.049 4.489 66.1 32.54 104.204 21.449 29.135 51.513 43.556 45.973 41.092-1.58-.702-1.174-1.139-3.15-2.455-1.252-.835.74 2.458.961 3.343.63 2.53 5.442 12.623 15.058 32.627 5.785 12.036 25.553 37.466 37.152 51.244.024.029 4.403-2.181 8.697-1.872 4.414.317 6.579 4.716 6.355 4.105-1.284-3.51-8.567-5.769-13.612-2.83-2.094 1.219-4.231.466-14.784 5.85-2.066 1.054-7.547 7.743-5.472 8.785 11.764 5.903 34 4.002 35.591 2.684 3.533-2.926 1.852-9.302-1.261-13.838-1.655-2.41-2.799-3.311-3.827-3.854-.658-.347-1.768.459-1.289-2.203 2.754-15.289 4.115-36.054 10.957-67.748.077-.354-5.35 2.014-8.945 3.327-4.636 1.694-12.845.198-14.051-.172-1.444-.444-4.134-1.586-3.813-1.422 3.317 1.686 8.819 2.58 10.595 2.466 3.68-.236 4.428-.178 6.213-.553 1.019-.215 2.072-.792 4.736-1.405 11.941-2.749 27.406-20.458 32.424-109.737" style="fill:#fffef4" transform="matrix(-.3166 0 0 .30318 572.694 -153.397)"/><path d="M857.23 859.181c.292-.025.654.049 1.082.334.927.618 1.356 1.048 1.695 1.401 1.314.808 2.096 1.28 2.226 1.392.372.32.423.66.445.795.074.475-.075.842-.362 1.128-.101.102-.497.522-1.235.296a9.468 9.468 0 0 1-.759-.313 7.19 7.19 0 0 1-.407-.195c.463 1.455 1.796 4.471 4.033 9.277 2.48 5.326 6.061 12.795 10.819 22.691 2.503 5.208 7.657 12.944 13.618 21.148 7.515 10.342 16.315 21.417 22.787 29.138.157-.064.334-.135.528-.209 2.149-1.239 4.657-1.646 7.014-1.444.297.001.594.011.891.032.119.009.237.02.353.034a9.92 9.92 0 0 1 .048-.294c1.881-10.445 3.11-23.448 5.884-40.748a508.08 508.08 0 0 1 4.501-24.335c-1.092.49-2.166.838-3.21 1.078-.723.166-1.322.33-1.832.483-1.394.421-2.17.767-2.925.926l-.093.019c-1.437.337-3.068.473-4.697.477l-.261-.001c-.398.023-.839.049-1.333.081-1.051.067-3.332-.18-5.754-.738a30.796 30.796 0 0 1-.837-.204 7.782 7.782 0 0 1-.91-.247c-1.336-.385-2.635-.857-3.715-1.407-.146-.074-.223-.139-.251-.162-.654-.539-.485-1.173-.416-1.401.1-.336.345-.849 1.097-.905.058-.005.212-.02.443.049.045.014.206.073.446.168.652.259 2.082.839 3.102 1.177l.282.079.324.087.31.08c1.325.283 4.177.728 7.102.757 1.367-.078 2.215-.114 2.951-.183a14.417 14.417 0 0 0 1.717-.265l.081-.018c.281-.073.551-.156.81-.25 2.679-.979 6.373-2.542 8.059-3.132.4-.141.723-.228.941-.27 4.835-3.243 9.859-10.097 14.339-23.948 5.258-16.258 9.66-41.941 11.928-82.33.04-.718.632-1.266 1.321-1.224.69.042 1.216.659 1.176 1.376-2.291 40.723-6.76 66.614-12.064 83.006-4.68 14.464-10.084 21.693-15.245 25.219a506.302 506.302 0 0 0-4.943 26.383c-2.779 17.321-4.013 30.34-5.897 40.798a5.442 5.442 0 0 0-.064.491l.213.099.214.108.02.01c.086.03.169.067.25.109.346.183.703.4 1.083.685 1.317.824 2.309 1.871 2.79 3.003.13.179.263.368.399.566 1.866 2.719 3.234 6.062 3.442 9.027.186 2.644-.528 5.001-2.417 6.565-.287.238-1.059.568-2.258.807-3.068.61-9.574 1.111-16.561.689-6.366-.384-13.123-1.544-18.076-4.03-.764-.383-1.15-1.055-1.159-1.977-.006-.742.33-1.772.952-2.871 1.418-2.507 4.276-5.533 5.672-6.245 3.098-1.581 5.482-2.639 7.356-3.376a38.028 38.028 0 0 1 4.31-1.428c-6.424-7.706-14.899-18.407-22.175-28.423-6.07-8.355-11.304-16.242-13.853-21.547-4.762-9.909-8.347-17.388-10.829-22.721-2.59-5.563-3.992-8.85-4.317-10.157-.13-.522-.89-1.89-1.211-2.731a172.242 172.242 0 0 1-15.614-11.222c-8.46-6.825-18.267-16.062-26.742-27.575-12.508-16.992-20.546-33.58-25.544-49.416-6.296-19.954-7.765-38.717-7.241-55.601.022-.696.582-1.243 1.251-1.221.669.022 1.194.606 1.173 1.302-.514 16.619.927 35.089 7.127 54.729 4.924 15.596 12.848 31.929 25.169 48.663 5.298 7.196 11.128 13.486 16.809 18.837 9.81 9.242 19.18 15.687 24.624 19.165zm61.355 87.999a11.132 11.132 0 0 1 1.974.364c.21.179.454.289.715.363.142.039.392.071.567.089l.12.053.225.105.205.103c.999.672 1.696 1.509 2.091 2.031.268.354.433.599.485.658.027.031.054.06.082.085.092.13.186.264.282.404 1.599 2.33 2.81 5.177 2.989 7.717.121 1.72-.237 3.294-1.444 4.325a6.251 6.251 0 0 1-.585.189c-.579.148-1.381.291-2.36.421-3.328.441-8.623.712-14.24.373-5.921-.356-12.207-1.38-16.877-3.643.026-.122.065-.282.112-.407.171-.452.445-.957.777-1.482.425-.672.943-1.37 1.486-2.023 1.034-1.244 2.138-2.344 2.832-2.698 3.009-1.535 5.323-2.565 7.143-3.281 2.862-1.126 4.543-1.516 5.769-1.857a1.45 1.45 0 0 0 .443-.116l.093-.041c.467-.145.873-.3 1.272-.519 1.371-.516 3.572-1.198 5.844-1.213z" style="fill:#424242" transform="matrix(-.3166 0 0 .30318 572.694 -153.397)"/><path d="M1250.73 855.169c10.93 1.419-38.89-13.112-70.53-8.613-11.14 1.584-20.47 1.949-31.39 2.832-25.34 2.049-47.9 22.392-71.76 30.344-7.89 2.631-17.24 5.871-25.46 5.685-3.99-.09-34.4-4.601-34.4-4.601s-10.57-9.398 24.73-49.769c10.9-12.457 24.84-25.977 35.69-38.369 1.51-1.728 17.99-12.435 20.57-12.435 2.04 0-2.97-5.324-4.18-10.14-1.33-5.32 3.96-11.337 6.59-13.569 10.85-9.217 22.59 7.352 25.84 11.264 8.92 10.721-11.81-4.75-15.9 9.745-3.06 10.856 3.01-1.099 0 4.378-4.09 7.425 7.28-.049 4.74 3.536-7.49 10.581-45.4 69.277-44.76 68.515 4.48-5.276 33.73-42.273 53.84-49.235 19.9-6.89 62.31-9.888 90.91-4.737" style="fill:#fffef4;stroke:#424242;stroke-width:3.02px" transform="matrix(.26193 0 0 .2612 -47.949 -178.73)"/><path d="M894.403 682.039c2.823 0 5.115 12.594 5.115 28.106 0 15.512-2.637 24.62-5.46 24.62-2.822 0-4.77-9.108-4.77-24.62s2.292-28.106 5.115-28.106z" style="fill:#fffef4" transform="matrix(.18236 .0086 -.00819 .17266 81.828 -108.676)"/><path d="M894.403 681.191c-.677-.026-1.382.382-2.038 1.281-.915 1.255-1.798 3.668-2.541 6.939-1.174 5.168-2.009 12.535-2.253 20.734-.187 9.804.447 17.142 1.65 21.357.549 1.922 1.267 3.281 1.99 4.104.876.997 1.861 1.407 2.847 1.406.94-.001 1.915-.38 2.81-1.318 1.078-1.131 2.189-3.383 2.965-6.74 1.007-4.354 1.593-10.747 1.456-18.809-.22-8.206-1.033-15.583-2.193-20.758-.739-3.298-1.626-5.731-2.544-6.999-.687-.95-1.436-1.374-2.149-1.35zm-.265 51.325c.135-.002.328-.001.259.088-.084.108-.171.055-.259-.088zm-.102 0c-.101.144-.19.19-.252.063-.044-.088.151-.066.252-.063zm.055-.082c-.158-.3-.319-.836-.472-1.22-.73-1.83-1.316-4.63-1.762-8.286-.432-3.532-.744-7.819-.852-12.783-.194-6.578.046-12.629.594-17.411.459-3.995 1.103-7.077 1.945-8.772.299-.602.504-1.061.859-1.075v.153c.072.003.117.081.184.143.201.189.374.484.557.849.844 1.683 1.483 4.749 1.95 8.72.562 4.776.824 10.821.653 17.393-.096 4.981-.473 9.276-.997 12.807-.539 3.636-1.241 6.416-2.068 8.221-.187.409-.406.961-.591 1.261z" style="fill:#424242" transform="matrix(.18236 .0086 -.00819 .17266 81.828 -108.676)"/><path d="M894.325 681.854c-.296.064 2.15-.226 2.656-.293a63.674 63.674 0 0 1 5.771-.479c5.873-.24 11.761-.528 17.637-.668 12.6-.3 25.083.259 37.659.913 5.465.285 10.018.295 15.482 1.086.992.143 1.08 7.422 1.725 7.745 1.383.691 2.408-1.116 2.739.15.561 2.14 2.702 13.793 2.4 18.663-.175 2.8.831 9.217-.963 14.886-2.117 6.693-3.881 8.486-5.088 10.211-.269.384-1.018 4.593-2.928 4.878-8.075 1.207-18.507.003-26.721-.282-13.371-.464-47.847-1.678-51.285-2.757-.601-.188-8.054-.319-7.34-27.098.17-6.403.356-11.781 2.155-18.646 1.382-5.277 4.183-8.028 6.101-8.309z" style="fill:#fff3d5" transform="matrix(.18236 .0086 -.00819 .17266 81.828 -108.676)"/><path d="M894.852 681.143a1.022 1.022 0 0 0-.651-.128c-1.129.149-2.576 1.018-3.915 2.694-1.152 1.442-2.238 3.5-2.981 6.187a59.827 59.827 0 0 0-1.568 7.49c-.545 3.796-.701 7.394-.856 11.388-.414 10.644.515 17.19 1.806 21.232 1.041 3.263 2.364 5.017 3.472 6.008 1.411 1.261 2.565 1.369 2.81 1.449 1.384.452 7.709 1.025 15.706 1.531 12.002.761 27.85 1.446 35.952 1.801 4.89.199 10.563.738 16.062.88 3.865.099 7.645-.004 11.026-.503 1.083-.162 2.048-.848 2.788-1.919.87-1.26 1.416-3.149 1.703-4.059.818-1.146 1.852-2.398 3.063-4.958.671-1.416 1.396-3.238 2.161-5.678.66-2.119.973-4.331 1.092-6.449.212-3.738-.201-7.152-.095-8.998.11-1.938-.134-4.892-.538-7.94-.648-4.893-1.677-10.037-2.044-11.4-.404-1.499-1.238-1.845-2.019-1.928a2.418 2.418 0 0 0-.959.092c-.075.023-.154.05-.236.082-.269-1.759-.513-4.41-.929-5.621-.453-1.317-1.317-1.814-1.922-1.896a81.433 81.433 0 0 0-6.315-.593c-3.047-.175-6.023-.218-9.334-.358-7.567-.307-15.1-.581-22.643-.652a335.005 335.005 0 0 0-15.127.174l-17.65.899c-.979.053-1.955.122-2.928.215-.977.092-1.951.206-2.924.347-.374.055-1.823.248-2.403.313l-.166.017s.265.036.298.046c.06.019.16.106.264.235zm77.513 3.048c.354 1.601.491 4.494.772 5.778.269 1.228.949 1.813 1.304 1.994.618.314 1.358.325 1.996.237a139.76 139.76 0 0 1 1.494 9.525c.327 2.731.546 5.373.429 7.105-.123 1.845.258 5.262.013 8.998-.115 1.751-.378 3.58-.94 5.327-.697 2.182-1.35 3.813-1.956 5.08-1.136 2.374-2.109 3.447-2.85 4.501-.136.194-.45 1.05-.806 2.131-.146.443-.327.945-.561 1.392a4.924 4.924 0 0 1-.317.486c-3.125.458-6.607.538-10.167.474-5.48-.098-11.14-.546-16.016-.686-8.092-.207-23.92-.634-35.913-1.143-7.628-.324-13.67-.639-14.998-1.039-.141-.042-.79-.038-1.593-.656-1.177-.906-2.577-2.94-3.617-7.396-.904-3.878-1.498-9.445-1.383-17.455.047-3.261.101-6.252.372-9.318a58.294 58.294 0 0 1 1.515-9.096c.594-2.401 1.495-4.26 2.481-5.568.818-1.085 1.668-1.794 2.423-2.066v-.001c.156.05.35.07.587.05.596-.051 2.085-.209 2.469-.255.945-.112 1.89-.198 2.837-.262.949-.065 1.9-.108 2.853-.135l17.625-.436c5.02-.061 10.019.017 15.012.181 7.51.246 15.005.69 22.534 1.168 3.29.203 6.248.304 9.275.537 1.665.128 3.351.297 5.126.548zm-77.114-2.164c-.079.32-.363.585-.743.657l.007.151c.591-.136.762-.461.736-.808z" style="fill:#424242" transform="matrix(.18236 .0086 -.00819 .17266 81.828 -108.676)"/><path d="M894.776 681.873c3.976.847 8.98 18.195 7.611 30.505-1.519 13.665-3.55 25.598-8.429 26.696-6.483 1.459-10.42-11.404-9.532-29.739 1.039-21.437 7.551-28.057 10.35-27.462z" style="fill:#b3b3b3;stroke:#424242;stroke-width:3.31px" transform="matrix(.29042 .0137 -.00819 .17266 -.548 -112.562)"/><path d="M1109.44 784.24c-.35 0 2.94-2.783 3.14-3.502.62-2.242.08-5.501-2.14-7.047-3.68-2.566-6.38 9.694-7.58 12.697" style="fill:#fffef4;stroke:#424242;stroke-width:3.02px" transform="matrix(.22915 .12652 -.12688 .2285 89.157 -292.533)"/><path d="M1128.24 750.874c.77-.098-.84 1.325-1.38 1.889-1.14 1.203-2.83 1.845-4.45 2.047-2.26.283-3.34-.88-5.26-1.344-2.82-.681-10.23.166-9.64-5.055.71-6.414 11.29-4.483 15.19-4.112 3.36.32 7.21 2.015 5.88 6.004" style="fill:#fffef4;stroke:#424242;stroke-width:3.02px" transform="matrix(.26193 0 0 .2612 -47.949 -178.73)"/><path d="M972.53 607.317c54.87 21.085 46.4 46.891 55.48 43.769 15.97-5.495 96.78 11.025 101.27 59.973 5.93 64.744-129.78 99.482-176.737 102.334-47.729 2.899-78.693-17.991-107.459-28.177-20.831-7.375-68.288-24.091-70.997-39.095-18.018-99.774 82.515-85.178 82.515-85.178.74-1.522 37.255-7.443 40.784-21.511" style="fill:#fffef4" transform="matrix(.3166 0 0 .30318 -32.603 -152.999)"/><path d="M857.465 661.882a39.462 39.462 0 0 1 2.554-.845c5.937-1.704 19.067-4.918 28.304-10.218 5.218-2.993 9.181-6.702 10.274-11.057.174-.696-.226-1.408-.894-1.59-.668-.182-1.352.236-1.527.931-.947 3.777-4.535 6.839-9.06 9.436-9.056 5.198-21.94 8.32-27.761 9.991-1.506.432-2.577.789-3.065 1.051l-.017.009c-4.855-.597-43.934-4.625-67.528 17.088-13.722 12.629-22.337 33.928-15.878 69.682.426 2.36 1.825 4.781 4.038 7.183 3.26 3.536 8.323 7.092 14.357 10.51 16.474 9.331 40.251 17.721 53.424 22.384 18.766 6.643 38.469 17.828 63.134 24.022 13.292 3.339 28.016 5.235 44.795 4.215 27.069-1.645 83.515-13.845 125.555-36.244 17.36-9.253 32.26-20.254 41.69-32.939 7.72-10.393 11.79-21.921 10.63-34.552-1.67-18.318-13.75-32.239-29.26-42.192-18.59-11.925-42.08-18.154-57.99-19.602-6.95-.633-12.49-.337-15.62.739-.55.192-1.01.255-1.41.137-.43-.126-.77-.449-1.12-.888-.47-.593-.92-1.382-1.42-2.331-2.57-4.872-6.31-13.647-18.53-23.289-7.228-5.702-17.441-11.714-32.19-17.38-.628-.242-1.325.093-1.557.747-.232.653.09 1.38.718 1.621 14.458 5.557 24.478 11.437 31.559 17.027 11.8 9.308 15.39 17.792 17.87 22.495 1.32 2.487 2.5 3.989 4.01 4.434.8.236 1.72.214 2.84-.169 2.93-1.008 8.12-1.213 14.64-.62 15.62 1.423 38.68 7.533 56.92 19.24 14.84 9.523 26.51 22.75 28.11 40.272 1.1 11.98-2.81 22.895-10.14 32.752-9.23 12.426-23.86 23.163-40.87 32.225-41.71 22.221-97.72 34.325-124.579 35.955-16.508 1.002-30.995-.866-44.072-4.152-24.582-6.177-44.213-17.341-62.916-23.964-13.076-4.63-36.683-12.948-53.035-22.213-5.773-3.27-10.633-6.647-13.751-10.031-1.822-1.976-3.039-3.928-3.39-5.87-6.225-34.483 1.851-55.082 15.087-67.261 24.442-22.49 66.035-16.39 66.035-16.39.386.056.766-.079 1.036-.349z" style="fill:#424242" transform="matrix(.3166 0 0 .30318 -32.603 -152.999)"/><path d="M892.523 678.16c4.229-5.436 45.522-27.518 81.608-1.965" style="fill:#fffef4" transform="matrix(.33496 0 0 .32076 -45.963 -165.133)"/><path d="M893.413 678.911c.839-1.078 3.245-2.811 6.801-4.712 7.247-3.875 19.172-8.27 32.895-8.815 12.673-.504 26.886 2.282 40.357 11.829.54.382 1.276.236 1.643-.325a1.265 1.265 0 0 0-.313-1.711c-13.95-9.869-28.66-12.748-41.777-12.216-14.127.574-26.398 5.113-33.856 9.109-3.964 2.123-6.595 4.136-7.531 5.339a1.228 1.228 0 0 0 .169 1.678 1.116 1.116 0 0 0 1.612-.176z" style="fill:#424242" transform="matrix(.33496 0 0 .32076 -45.963 -165.133)"/><path d="M991.349 671.236c-14.685-8.435-49.486-21.711-64.049-26.067-21.017-6.285-53.071-10.485-105.528-8.347-18.295.746-49.904 9.085-64.617 16.88-10.334 5.476-27.3-3.392-30.718 20.48-.4 2.794 8.791 20.686 24.586 12.047 5.201-2.844 9.46-13.187 14.707-14.901 12.814-4.184 44.805-7.216 70.114-5.541 1.387.091 2.779-.219 4.179-.341 6.749-.588 40.94 13.828 67.359 8.23" style="fill:#fffef4" transform="matrix(-.21506 -.12541 -.15348 .26171 581.375 -22.328)"/><path d="M990.465 672.269c-7.138-4.098-19.062-9.344-31.072-14.143-12.562-5.021-25.219-9.552-32.623-11.765-10.543-3.153-23.889-5.77-41.238-7.317-17.019-1.517-37.871-2.001-63.683-.946-8.968.366-21.172 2.588-32.971 5.666-11.982 3.125-23.549 7.134-30.873 11.015-3.343 1.772-7.323 2.18-11.367 2.538-3.498.31-7.048.579-10.13 2.045-4.114 1.956-7.237 6.056-8.512 14.97-.095.661.541 2.279 1.643 4.161 1.729 2.956 4.724 6.488 8.894 8.033 3.207 1.188 7.102 1.101 11.617-1.369 1.568-.858 3.009-2.483 4.453-4.303 2.109-2.656 4.166-5.727 6.317-7.884 1.354-1.356 2.774-2.366 4.227-2.841 7.22-2.358 20.446-4.373 35.179-5.39 11.689-.807 24.33-.992 35.646-.245a8.3 8.3 0 0 0 1.364-.041c.837-.082 1.677-.223 2.52-.296 1.597-.14 4.638.443 8.688 1.465 7.664 1.932 19.303 5.344 31.716 7.039 8.912 1.218 18.23 1.555 26.724-.246.85-.18 1.718.239 1.937.935.22.696-.291 1.408-1.141 1.587-8.914 1.888-18.691 1.569-28.042.29-12.573-1.72-24.364-5.167-32.125-7.125-3.474-.876-6.052-1.485-7.422-1.366-.987.086-1.971.263-2.951.332a11.06 11.06 0 0 1-1.523.011c-11.15-.738-23.607-.556-35.127.238-14.351.988-27.243 2.914-34.276 5.211-1.035.337-1.992 1.11-2.955 2.076-2.088 2.092-4.071 5.079-6.118 7.657-1.709 2.153-3.488 4.025-5.345 5.04-5.688 3.111-10.619 3.069-14.658 1.571-4.846-1.796-8.422-5.831-10.431-9.266-1.458-2.494-2.054-4.698-1.929-5.574 1.039-7.247 3.334-11.608 6.234-14.311 3.616-3.37 8.219-4.269 12.946-4.748 4.295-.435 8.694-.465 12.248-2.348 7.504-3.975 19.347-8.099 31.625-11.3 12.081-3.149 24.581-5.404 33.763-5.778 26.011-1.058 47.024-.562 64.174.969 17.656 1.577 31.234 4.252 41.963 7.462 7.47 2.235 20.242 6.805 32.916 11.873 12.172 4.867 24.252 10.195 31.486 14.351.696.4.865 1.188.377 1.758-.488.571-1.449.709-2.145.309z" style="fill:#424242" transform="matrix(-.21506 -.12541 -.15348 .26171 581.375 -22.328)"/><g transform="matrix(.28256 0 0 .27526 -6.752 -139.263)"><ellipse cx="963.672" cy="600.515" rx="33.412" ry="25.378" style="fill:#fffef4"/><path d="M963.672 573.702c-10.607.003-20.096 3.661-26.45 9.374-5.233 4.705-8.355 10.803-8.353 17.439.001 6.634 3.124 12.729 8.359 17.432 6.354 5.708 15.841 9.36 26.444 9.358 10.6-.003 20.085-3.658 26.435-9.368 5.228-4.702 8.347-10.793 8.346-17.422-.002-6.629-3.123-12.718-8.352-17.416-6.35-5.705-15.833-9.355-26.429-9.353zm0 2.825c8.071.002 15.458 2.247 21.119 5.973 6.655 4.38 10.925 10.808 10.924 18.015-.002 7.204-4.274 13.629-10.93 18.005-5.661 3.722-13.045 5.962-21.113 5.96-8.068-.002-15.45-2.245-21.108-5.969-6.649-4.376-10.916-10.798-10.914-17.996.002-7.198 4.271-13.616 10.919-17.987 5.658-3.72 13.039-5.959 21.103-5.957z" style="fill:#424242"/></g><g transform="matrix(.2397 0 0 .13486 218.615 -66.952)"><circle cx="179.701" cy="676.279" r="10.709" style="fill:#fffef4"/><path d="M179.701 662.642c-3.372.005-6.41 1.461-8.571 3.724-2.423 2.537-3.779 6.134-3.777 9.913.002 3.776 1.358 7.37 3.782 9.897 2.161 2.253 5.198 3.7 8.566 3.694 3.366-.005 6.4-1.458 8.558-3.718 2.414-2.527 3.767-6.109 3.765-9.873-.003-3.763-1.356-7.341-3.77-9.858-2.158-2.25-5.19-3.695-8.553-3.689zm0 5.765a9.613 9.613 0 0 1 5.898 2.006c1.838 1.424 3.198 3.365 3.197 5.866-.001 2.498-1.365 4.428-3.202 5.845a9.576 9.576 0 0 1-5.893 1.98 9.589 9.589 0 0 1-5.888-2.001c-1.827-1.416-3.183-3.338-3.182-5.824.002-2.484 1.361-4.396 3.187-5.804a9.56 9.56 0 0 1 5.883-1.977z" style="fill:#424242"/><g transform="translate(29.796)"><circle cx="179.701" cy="676.279" r="10.709" style="fill:#fffef4"/><path d="M179.701 662.642c-3.372.005-6.41 1.461-8.571 3.724-2.423 2.537-3.779 6.134-3.777 9.913.002 3.776 1.358 7.37 3.782 9.897 2.161 2.253 5.198 3.7 8.566 3.694 3.366-.005 6.4-1.458 8.558-3.718 2.414-2.527 3.767-6.109 3.765-9.873-.003-3.763-1.356-7.341-3.77-9.858-2.158-2.25-5.19-3.695-8.553-3.689zm0 5.765a9.613 9.613 0 0 1 5.898 2.006c1.838 1.424 3.198 3.365 3.197 5.866-.001 2.498-1.365 4.428-3.202 5.845a9.576 9.576 0 0 1-5.893 1.98 9.589 9.589 0 0 1-5.888-2.001c-1.827-1.416-3.183-3.338-3.182-5.824.002-2.484 1.361-4.396 3.187-5.804a9.56 9.56 0 0 1 5.883-1.977z" style="fill:#424242"/></g><path d="M189.716 671.663c-.144.065.106-.299.173-.443.145-.312.427-.582.696-.789a6.175 6.175 0 0 1 2.74-1.201c1.454-.242 2.999-.099 4.286.662.243.144 1.373 1.5 1.485 1.5" style="fill:#fffef4"/><path d="M191.07 673.176c.047-.042.113-.101.156-.134a5.066 5.066 0 0 1 2.251-.951 6.444 6.444 0 0 1 1.891-.026c.569.08 1.124.25 1.631.539.139.152.888.972 1.144 1.227.458.452.832.488.953.489.912 0 1.653-1.312 1.653-2.928 0-1.237-.434-2.295-1.046-2.724-.216-.226-1.358-1.415-1.572-1.54a6.608 6.608 0 0 0-2.522-.834 8.294 8.294 0 0 0-2.436.075 7.1 7.1 0 0 0-1.625.492 7.533 7.533 0 0 0-1.605.958c-.286.224-.578.5-.811.803a4.165 4.165 0 0 0-.424.68s-.339.665-.403.859a4.743 4.743 0 0 0-.201 2.066c.112.942.407 1.711 1.023 2.106.178.114.497.304.983.081.414-.186.749-.644.96-1.238zm-1.284-4.348z" style="fill:#424242"/><path d="M168.599 676.413c-.79-1.83-2.072-3.489-3.073-5.21-1.671-2.872-3.233-5.912-5.469-8.4-1.694-1.884-4.825-2.765-5.338.445" style="fill:#fffef4"/><path d="M156.285 664.178c.096-.045.325-.145.48-.15.379-.014.792.104 1.192.302a4.19 4.19 0 0 1 1.231.927c.787.87 1.483 1.816 2.129 2.799 1.108 1.685 2.076 3.475 3.086 5.2.691 1.182 1.516 2.335 2.222 3.534.259.441.502.885.702 1.347.537 1.244 1.543 1.481 2.245.529.702-.951.835-2.734.298-3.978a18.351 18.351 0 0 0-1.018-1.994c-.699-1.202-1.518-2.359-2.203-3.543-1.048-1.812-2.056-3.687-3.206-5.458-.763-1.174-1.587-2.301-2.517-3.344-1.445-1.617-3.708-2.57-5.279-1.933-1.254.508-2.164 1.846-2.518 4.033-.249 1.555.262 3.175 1.139 3.616.852.428 1.739-.413 2.017-1.887z" style="fill:#424242"/><path d="M220.643 675.259c-.021-.021.304-.906.321-.962.356-1.156.68-2.306 1.212-3.399 1.421-2.915 3.243-6.053 5.635-8.275.983-.913 2.233-1.889 3.656-1.725" style="fill:#fffef4"/><path d="M219.574 672.88c-.036.102-.252.716-.316.928-.666 2.202.45 3.777.607 3.931.772.761 1.748.268 2.177-1.101.021-.065.04-.131.057-.198l.273-.782c.201-.649.39-1.297.62-1.931.118-.325.249-.647.404-.961.698-1.423 1.499-2.903 2.427-4.285.811-1.209 1.722-2.341 2.748-3.286.432-.397.924-.815 1.467-1.094.409-.211.852-.338 1.321-.281.91.105 1.697-1.119 1.756-2.732.059-1.612-.631-3.007-1.541-3.112-.701-.076-1.369.05-1.999.311-.946.392-1.798 1.084-2.524 1.764-1.244 1.165-2.348 2.552-3.328 4.035-1.057 1.598-1.972 3.303-2.766 4.945a16.172 16.172 0 0 0-.676 1.629c-.261.731-.479 1.473-.707 2.22z" style="fill:#424242"/></g><path d="M912.567 565.725c-.497-.989 2.138 3.245 2.439 3.792 1.611 2.935 3.419 5.752 4.916 8.747" style="fill:#fffef4" transform="matrix(.33496 0 0 .32076 -46.996 -164.525)"/><path d="M911.861 566.664c.596.901 1.934 3.074 2.14 3.451 1.124 2.061 2.345 4.063 3.488 6.109.48.859.946 1.726 1.385 2.608.301.603 1.016.838 1.594.524.579-.314.804-1.058.503-1.661a63.93 63.93 0 0 0-1.454-2.707c-1.149-2.033-2.375-4.022-3.506-6.07-.232-.419-1.81-2.956-2.376-3.781a4.072 4.072 0 0 0-.265-.354c-.465-.52-.964-.405-1.1-.375a1.11 1.11 0 0 0-.673.441 1.162 1.162 0 0 0-.228.894c.008.059.036.245.183.535.078.155.184.285.309.386z" style="fill:#424242" transform="matrix(.33496 0 0 .32076 -46.996 -164.525)"/><path d="M924.793 560.678c.526 3.632 3.201 9.25 3.659 13.835" style="fill:#fffef4" transform="matrix(.33496 0 0 .32076 -46.996 -164.525)"/><path d="M923.66 560.856c.371 2.612 1.822 6.239 2.806 9.786.38 1.37.686 2.726.81 3.999.068.676.65 1.167 1.299 1.097.649-.07 1.121-.676 1.053-1.352-.144-1.409-.485-2.912-.913-4.427-.971-3.431-2.416-6.93-2.789-9.459-.094-.651-.678-1.1-1.304-1.002-.625.098-1.056.707-.962 1.358z" style="fill:#424242" transform="matrix(.33496 0 0 .32076 -46.996 -164.525)"/><path d="M939.367 560.91c.405 3.303-1.19 9.238-2.362 13.146" style="fill:#fffef4" transform="matrix(.33496 0 0 .32076 -46.996 -164.525)"/><path d="M938.23 561.061c.158 1.32-.045 3.088-.396 4.966-.493 2.636-1.294 5.473-1.958 7.662-.194.649.153 1.34.776 1.542.623.203 1.287-.159 1.481-.808.674-2.269 1.485-5.21 1.98-7.941.393-2.164.581-4.205.39-5.723-.08-.653-.654-1.116-1.281-1.032-.628.083-1.072.681-.992 1.334z" style="fill:#424242" transform="matrix(.33496 0 0 .32076 -46.996 -164.525)"/><path d="M955.501 563.599c-.449.073-1.337 2.899-1.517 3.265-1.612 3.293-3.297 6.542-4.768 9.902" style="fill:#fffef4" transform="matrix(.33496 0 0 .32076 -46.996 -164.525)"/><path d="M956.169 564.568c.34-.253.533-.693.465-1.152-.097-.651-.683-1.097-1.308-.996-.27.043-.682.232-1.022.739-.494.737-1.191 2.839-1.348 3.159-.973 1.974-1.973 3.932-2.936 5.908a115.21 115.21 0 0 0-1.879 4.03c-.271.618-.008 1.349.585 1.63.594.282 1.296.009 1.566-.61a114.767 114.767 0 0 1 1.82-3.951c.952-1.978 1.939-3.938 2.901-5.915.13-.267 1.015-2.489 1.156-2.842z" style="fill:#424242" transform="matrix(.33496 0 0 .32076 -46.996 -164.525)"/><path d="M524.068 544.238c.366-.193.381-.473.205-.801-.421-.785-1.991-1.858-2.529-2.688-2.945-4.549-6.12-9.192-9.491-13.695-3.387-4.523-6.967-8.889-10.702-12.863a1.175 1.175 0 0 0-1.66 1.66c3.924 3.689 7.717 7.774 11.332 12.025 3.631 4.271 7.075 8.694 10.284 13.037.594.803 2.243 1.788 2.716 2.553.187.302.182.567-.155.772zM552.907 532.414c.085-.032.132-.153.158-.307.049-.29.023-.696.032-.829.515-7.322 1.343-14.626 1.923-21.95.251-3.156.453-6.308.566-9.468a1.174 1.174 0 0 0-2.347 0c.112 3.131.137 6.259.114 9.396-.053 7.343-.353 14.683-.341 22.019 0 .133.056.536.028.828-.015.152-.053.274-.133.311zM616.052 547.025c.007-.255.324-.561.758-.865.831-.581 2.084-1.152 2.424-1.35 8.41-4.888 15.538-11.908 23.374-17.525 1.961-1.406 3.965-2.718 6.047-3.887a1.174 1.174 0 0 0-1.207-2.013c-2.078 1.33-4.068 2.802-6.006 4.369-7.501 6.064-14.213 13.491-22.33 18.861-.327.217-1.547.861-2.343 1.49-.421.333-.725.661-.717.92z" style="fill:#424242" transform="matrix(.38237 0 0 .3813 -123.188 -190.15)"/></g></svg>
