<?xml version="1.0" encoding="UTF-8" standalone="no"?>
<svg
   fill-rule="evenodd"
   clip-rule="evenodd"
   stroke-linecap="round"
   stroke-linejoin="round"
   stroke-miterlimit="1.5"
   width="200"
   height="120.49332"
   version="1.1"
   id="svg86"
   sodipodi:docname="zefizan-slim.svg"
   inkscape:version="1.2.2 (1:1.2.2+202212051552+b0a8486541)"
   xmlns:inkscape="http://www.inkscape.org/namespaces/inkscape"
   xmlns:sodipodi="http://sodipodi.sourceforge.net/DTD/sodipodi-0.dtd"
   xmlns="http://www.w3.org/2000/svg"
   xmlns:svg="http://www.w3.org/2000/svg">
  <defs
     id="defs90" />
  <sodipodi:namedview
     id="namedview88"
     pagecolor="#ffffff"
     bordercolor="#000000"
     borderopacity="0.25"
     inkscape:showpageshadow="2"
     inkscape:pageopacity="0.0"
     inkscape:pagecheckerboard="0"
     inkscape:deskcolor="#d1d1d1"
     showgrid="false"
     inkscape:zoom="4.6277203"
     inkscape:cx="95.403345"
     inkscape:cy="59.424507"
     inkscape:window-width="1920"
     inkscape:window-height="1044"
     inkscape:window-x="1366"
     inkscape:window-y="0"
     inkscape:window-maximized="1"
     inkscape:current-layer="svg86" />
  <path
     d="m 47.860397,33.292593 c -0.458444,0.340787 5.710979,-0.298027 7.350647,-0.182704 5.45053,0.383548 6.408882,1.269596 9.652973,2.259047 9.683553,2.952543 20.806707,7.132439 28.650006,13.800216 0.206028,0.175188 2.423091,-0.132946 3.054391,0.201881 2.940103,1.557775 2.184669,6.066798 -0.932696,6.98213 -6.181862,1.81382 -3.006188,-4.23095 -3.952618,-5.553154 -0.77539,-1.083265 -3.356305,-1.788682 -4.481812,-2.28885 -3.764473,-1.672062 -7.937631,-3.030807 -12.233888,-3.96428 -4.851625,-1.053721 -15.092359,-1.123433 -21.055236,-0.828775 -0.77824,0.03861 -24.355823,-2.3101 -26.883094,-1.149867"
     fill="#fffef4"
     style="stroke:#000000;stroke-width:0.259154;stroke-dasharray:none;stroke-opacity:1"
     id="path2" />
  <path
     d="m 48.069793,33.104188 c 0.10729,0.0083 0.259673,0.0093 0.4473,0.0065 1.586283,-0.02255 5.462969,-0.370332 6.713647,-0.28196 2.268894,0.15938 3.766546,0.405835 4.973168,0.709305 1.70938,0.430196 2.829963,0.977011 4.74252,1.560108 5.80583,1.770022 12.127376,3.980089 17.953679,6.900237 3.912709,1.961538 7.602027,4.242871 10.764226,6.924598 0.04302,0.0052 0.167154,0.01788 0.276258,0.01918 0.443154,0.0052 1.143388,-0.03784 1.733741,-0.01451 0.432788,0.0171 0.811153,0.07619 1.027805,0.191256 1.597426,0.846138 2.189853,2.49695 1.949358,4.056539 -0.235571,1.529528 -1.274779,2.964723 -2.935439,3.451933 -2.10174,0.617046 -3.203663,0.331199 -3.763177,-0.305802 -0.312022,-0.3553 -0.469587,-0.831884 -0.52686,-1.36937 -0.06764,-0.632077 0.0021,-1.352007 0.07205,-2.027881 0.04794,-0.463886 0.09589,-0.905744 0.09122,-1.278148 -0.0034,-0.28507 -0.02851,-0.524269 -0.139166,-0.678984 C 91.222845,50.649725 90.821674,50.373726 90.353901,50.122087 89.274265,49.5421 87.845289,49.111127 87.084672,48.77319 A 60.700374,60.700374 0 0 0 81.096395,46.493385 65.331976,65.331976 0 0 0 74.906239,44.82832 c -2.055869,-0.446522 -5.084863,-0.71371 -8.343208,-0.852358 -4.403028,-0.187109 -9.222517,-0.13787 -12.636614,0.0311 -0.516235,0.0254 -11.061993,-0.996189 -18.853203,-1.35123 -2.625231,-0.119988 -4.935849,-0.163785 -6.435833,-0.06401 -0.705418,0.04691 -1.221134,0.118952 -1.487027,0.241013 a 0.29128923,0.29128923 0 0 1 -0.242568,-0.528674 c 0.302433,-0.139166 0.887344,-0.239458 1.69124,-0.292844 1.515015,-0.100293 3.848957,-0.05701 6.500622,0.06401 7.768404,0.355041 18.283323,1.379477 18.798262,1.35408 3.428609,-0.169227 8.268572,-0.218208 12.689482,-0.02954 3.29644,0.14072 6.360938,0.413869 8.44065,0.866093 a 65.97131,65.97131 0 0 1 6.244577,1.680614 61.242006,61.242006 0 0 1 6.045289,2.302325 c 0.769428,0.342084 2.214731,0.780573 3.307324,1.368334 0.555368,0.298805 1.021068,0.639593 1.291106,1.016143 0.133983,0.187628 0.210433,0.449633 0.235831,0.767615 0.03447,0.436156 -0.02332,0.99256 -0.08423,1.582395 -0.06608,0.635964 -0.136315,1.313134 -0.07256,1.908152 0.04406,0.410759 0.149014,0.780572 0.387695,1.052166 0.231424,0.263818 0.587761,0.423717 1.112548,0.454556 0.521937,0.03058 1.194442,-0.06608 2.059498,-0.319537 1.435714,-0.421385 2.327982,-1.667916 2.531936,-2.99038 0.204732,-1.329978 -0.289993,-2.743405 -1.652107,-3.465149 -0.149014,-0.07904 -0.403244,-0.105994 -0.694015,-0.121544 -0.66188,-0.03473 -1.494283,0.02592 -1.938732,0.0078 C 93.555228,49.49857 93.390665,49.4387 93.329246,49.386611 90.193482,46.720664 86.530079,44.454879 82.6451,42.507077 76.848599,39.600663 70.558151,37.401741 64.781088,35.639493 c -1.901673,-0.580247 -3.015777,-1.124729 -4.71505,-1.553111 -1.18278,-0.298027 -2.651147,-0.538004 -4.874689,-0.694533 -1.242126,-0.08759 -5.091342,0.26045 -6.666222,0.282478 -0.249306,0.0039 -0.444967,-5.18e-4 -0.571175,-0.01529 -0.113251,-0.0127 -0.190997,-0.03913 -0.233498,-0.0622 a 0.29699062,0.29699062 0 0 1 -0.163008,-0.228833 c -0.01166,-0.07982 -0.0026,-0.199549 0.13476,-0.301397 a 0.28144138,0.28144138 0 0 1 0.377587,0.03784 z m -0.03058,0.406353 -0.01062,0.0086 a 0.13890661,0.13890661 0 0 0 0.01037,-0.0086 z m 0.01037,-0.0088 -0.0078,0.007 0.0049,-0.0041 z m 0.0078,-0.0078 -0.0052,0.0052 0.0026,-0.0021 z"
     style="stroke:#000000;stroke-width:0.259154;stroke-dasharray:none;stroke-opacity:1"
     id="path4" />
  <path
     d="M 45.444044,34.022112 C 46.062904,33.257607 34.892584,24.908439 33.64994,23.720735 31.597958,21.759457 29.437908,19.912984 27.228878,18.132336 21.935137,13.864068 16.366433,10.27867 10.302486,7.2468262 c -0.04587,-0.023065 -0.0052,-0.4807309 -0.0052,-0.5307476 0,-1.5214939 -0.162231,-2.8939741 -1.2903285,-4.022072 C 7.7941332,1.4811653 5.4806644,1.7644208 4.0016718,2.9899606 2.6076818,4.1447514 0.90737162,7.3942849 2.6221944,8.7973453 4.353344,10.213623 5.7193453,8.1678599 7.1755323,8.1678599 c 0.5037956,0 2.2429789,1.5818768 2.6379298,1.8731661 7.8290459,5.775509 19.3321199,24.529197 22.7884589,36.330039 0.578691,1.975532 25.007336,-0.260709 25.272709,1.329719"
     fill="#fffef4"
     style="stroke:#000000;stroke-width:0.259154;stroke-dasharray:none;stroke-opacity:1"
     id="path6" />
  <path
     d="m 57.598113,47.791748 a 0.91014927,0.91014927 0 0 0 -0.132169,-0.06842 C 57.163512,47.607748 56.634837,47.531816 55.936158,47.477653 52.053511,47.177034 43.152085,47.648954 37.530254,47.503568 35.736908,47.45692 34.272428,47.346002 33.397265,47.131941 33.064252,47.050826 32.809244,46.95157 32.640535,46.84117 32.464828,46.726624 32.365054,46.591087 32.324367,46.452439 30.674591,40.81791 27.181971,33.593212 23.134761,26.961458 18.742877,19.764748 13.700256,13.264385 9.6431979,10.271414 9.3853395,10.081195 8.5524182,9.3384591 7.8669555,8.8486578 7.6668885,8.7056047 7.481075,8.5845798 7.3286924,8.51098 7.265718,8.4803998 7.2146646,8.4539661 7.1755323,8.4539661 c -0.496021,0 -0.9759744,0.2700386 -1.4701813,0.5286744 C 5.1499837,9.2734114 4.5801038,9.5561486 3.9809395,9.5807682 3.492434,9.6015005 2.9811229,9.4605207 2.4413049,9.0186629 1.6405186,8.3635213 1.4821755,7.3543752 1.7104902,6.3001362 2.0085175,4.9229912 2.9689426,3.4745788 3.8194865,2.7699388 4.5684419,2.149783 5.5192783,1.7569053 6.4480867,1.655576 7.4966243,1.5418074 8.5151,1.7991474 9.2080781,2.4926439 A 4.276043,4.276043 0 0 1 10.209968,4.044977 c 0.30632,0.8197045 0.371886,1.7168961 0.371886,2.6713607 0,0.025915 -0.0067,0.22365 -0.01088,0.3470074 a 93.371934,93.371934 0 0 1 8.643826,4.9280749 94.4609,94.4609 0 0 1 8.191862,5.920376 121.12449,121.12449 0 0 1 3.277004,2.733298 87.312651,87.312651 0 0 1 3.16168,2.871428 c 0.870499,0.831885 6.617501,5.181527 9.761817,7.970803 1.036358,0.919479 1.793088,1.680615 2.030991,2.101481 0.158343,0.279886 0.119989,0.493689 0.02514,0.611085 a 0.28221884,0.28221884 0 0 1 -0.486432,-0.267965 1.3986548,1.3986548 0 0 0 -0.09977,-0.174929 c -0.4105,-0.585429 -1.584987,-1.650034 -3.032881,-2.87376 C 38.8123,28.15253 34.225272,24.662242 33.454029,23.925467 A 86.805228,86.805228 0 0 0 30.312812,21.073217 120.5217,120.5217 0 0 0 27.050839,18.353135 93.94596,93.94596 0 0 0 18.906921,12.4693 92.811384,92.811384 0 0 0 10.174982,7.5015747 c -0.05053,-0.024879 -0.151605,-0.102625 -0.172337,-0.2684837 -0.017104,-0.1337235 0.0093,-0.4726971 0.0093,-0.5167533 0,-0.7341836 -0.037059,-1.432604 -0.2119879,-2.08334 C 9.6307585,4.0042898 9.3309172,3.4214522 8.8048343,2.8956285 8.2302896,2.3210838 7.3794866,2.1282732 6.5100246,2.2231236 A 4.4755917,4.4755917 0 0 0 4.1838572,3.2097233 C 3.4105413,3.8506115 2.5397834,5.1684102 2.2689674,6.420902 2.0891144,7.2527867 2.1717846,8.0592744 2.8033432,8.5762868 3.2094377,8.9085224 3.5898759,9.0246235 3.9573565,9.0090742 4.4746281,8.9883419 4.9602829,8.7265962 5.4399772,8.475735 6.0202233,8.1717473 6.593213,7.8814946 7.1752732,7.8814946 c 0.07956,0 0.1803712,0.020732 0.2954357,0.066344 0.1930698,0.077228 0.4504098,0.2358302 0.7290005,0.4348606 0.6883134,0.4918745 1.5246037,1.2366835 1.7837578,1.4279392 4.0985228,3.0230326 9.2043768,9.5806686 13.6429098,16.8507186 4.075976,6.677624 7.590624,13.954154 9.253098,19.628333 0.007,0.02307 0.03317,0.03628 0.06064,0.05572 0.07334,0.05183 0.174929,0.09692 0.3001,0.139685 0.353746,0.121285 0.872313,0.21121 1.518643,0.279887 4.67229,0.49628 15.777303,-0.175447 20.70486,0.09874 1.192109,0.06634 2.039543,0.201362 2.388882,0.399097 0.195403,0.11014 0.285588,0.252156 0.308394,0.389767 a 0.29128923,0.29128923 0 0 1 -0.563142,0.138906 z"
     style="stroke:#000000;stroke-width:0.259154;stroke-dasharray:none;stroke-opacity:1"
     id="path8" />
  <path
     d="m 4.7213428,64.918466 c -0.9106676,5.711757 1.8964899,9.506291 3.1818943,11.109937 3.7147149,4.63549 10.3288469,9.58326 14.5105579,14.507448 0.661361,0.779276 3.028216,3.528124 3.864506,4.24002 0.506646,0.431233 -0.876978,-0.768392 -1.313652,-1.236165 -1.007073,-1.079118 -1.865392,-2.256714 -2.82478,-3.299291 -0.188405,-0.204732 0.528674,0.596573 0.528674,0.596573 0,0 0.04976,2.72345 0.07723,3.163494 0.124394,2.011814 0.187109,2.14787 0.981158,4.048506 1.797752,4.303252 3.467741,6.870172 6.21296,10.626872 1.162307,1.59095 3.990974,7.36413 3.990974,7.36413 -0.27263,-0.21977 7.847187,-0.68417 0,0 -0.653846,0.057 -1.361078,0.41024 -1.671544,0.63674 -0.936583,0.68494 -3.60302,2.73433 -1.128616,2.96653 1.168266,0.10937 7.570669,0.0917 7.581035,-0.53282 0.07127,-4.40043 -1.375072,-4.73371 -1.55648,-5.33728 -1.365483,-4.53934 1.245754,-11.16436 1.679319,-14.996727 0.03162,-0.282478 0.267447,-0.550702 -0.843546,-0.295694 -0.06479,0.01477 -1.433123,0.145903 -2.355971,0.08941 -1.638372,-0.09978 -3.317172,-0.174411 -0.168968,0 2.746256,0.152123 3.866839,-0.885271 5.820861,-1.851916 4.742261,-2.345344 7.402737,-14.974961 7.402737,-18.65184"
     fill="#fffef4"
     style="stroke:#000000;stroke-width:0.259154;stroke-dasharray:none;stroke-opacity:1"
     id="path10" />
  <path
     d="M 21.856613,90.324381 C 18.598009,86.598781 14.027567,82.865925 10.459015,79.269644 9.433283,78.235619 8.489962,77.212997 7.6824378,76.205664 6.8961642,75.22373 5.5511543,73.435307 4.8032355,70.902335 4.3056596,69.216278 4.0719026,67.201095 4.4430113,64.874151 a 0.28221884,0.28221884 0 0 1 0.556663,0.08889 c -0.3555594,2.231058 -0.1321686,4.163052 0.3451933,5.779656 0.7212259,2.441231 2.0206247,4.163051 2.7786505,5.109223 0.7961215,0.993079 1.7262256,2.00067 2.7371859,3.019146 3.704867,3.733115 8.485742,7.614725 11.769225,11.480527 a 121.29216,121.29216 0 0 0 2.262156,2.585322 c 0.469069,0.518826 0.920775,1.002926 1.261304,1.336198 0.167413,0.151087 0.307616,0.276518 0.377328,0.339233 0.03784,0.03421 0.07308,0.06997 0.105476,0.105476 0.291807,0.286883 0.339232,0.469069 0.258376,0.548888 -0.02851,0.173633 -0.273666,0.174152 -0.800527,-0.274185 a 6.3679351,6.3679351 0 0 1 -0.321869,-0.298027 c -0.340529,-0.307616 -0.795862,-0.725632 -1.015625,-0.960684 a 23.249753,23.249753 0 0 1 -0.586725,-0.655142 c -0.410759,-0.475289 -0.803378,-0.960684 -1.197292,-1.43701 l 0.05753,2.341199 c 0.06142,0.991523 0.105476,1.515533 0.23583,2.03125 0.128541,0.506387 0.339492,1.004222 0.724077,1.924997 0.893304,2.137502 1.754473,3.844292 2.733558,5.482662 0.981157,1.64174 2.080489,3.21559 3.447009,5.08564 0.424494,0.58077 1.070047,1.71197 1.719746,2.92145 0.924403,1.72078 1.860727,3.59965 2.18156,4.24909 0.03732,-0.008 0.07723,-0.0155 0.120247,-0.0228 0.828257,-0.13554 2.982864,-0.28066 3.186041,-0.2563 0.142535,0.0174 0.199549,0.10107 0.218208,0.12906 0.0666,0.0992 0.07464,0.20473 0.0036,0.31565 -0.01555,0.0246 -0.0596,0.0949 -0.18063,0.1288 -0.04095,0.0111 -0.151606,0.0303 -0.350118,0.0544 -0.448595,0.0549 -1.402801,0.14979 -3.113218,0.2988 -0.267447,0.0233 -0.544742,0.10237 -0.794308,0.19955 -0.308393,0.12025 -0.576358,0.26874 -0.733406,0.38355 -0.500167,0.36593 -1.522012,1.13173 -1.91178,1.78246 -0.05287,0.0881 -0.0933,0.1726 -0.112473,0.25345 -0.01374,0.0565 -0.01814,0.10937 0.0057,0.15524 0.0311,0.0588 0.09718,0.10003 0.190996,0.13916 0.136056,0.057 0.319537,0.0959 0.556923,0.11818 0.536967,0.0505 2.190111,0.0726 3.809047,0.0213 1.171117,-0.0376 2.324094,-0.11247 3.019145,-0.2462 a 3.1940745,3.1940745 0 0 0 0.439526,-0.12776 c 0.01659,-1.49713 -0.147459,-2.50006 -0.376551,-3.19693 -0.267706,-0.81348 -0.624562,-1.19444 -0.86091,-1.46759 -0.153419,-0.177 -0.260968,-0.32575 -0.308394,-0.48384 -0.420866,-1.39865 -0.476584,-2.99038 -0.331717,-4.63963 0.329126,-3.74478 1.696164,-7.79147 1.999633,-10.47242 0.0021,-0.01866 0.0052,-0.04069 0.0091,-0.06323 -0.11662,0.01114 -0.296213,0.03421 -0.500686,0.08111 -0.04147,0.0096 -0.589057,0.06738 -1.22839,0.09537 -0.228315,0.0098 -0.468551,0.01658 -0.701272,0.01581 A 9.1123772,9.1123772 0 0 1 35.449762,98.85863 200.06258,200.06258 0 0 1 33.774849,98.76197 L 33.557678,98.7472 c -0.759322,-0.03758 -1.383365,-0.100811 -1.846473,-0.173115 -0.853395,-0.111695 -1.130171,-0.22365 -0.937361,-0.304247 0.04924,-0.135537 0.919998,-0.214839 2.830223,-0.09796 l 0.185295,0.0073 c 0.257599,0.0114 1.065123,0.0539 1.863318,0.102625 0.137092,0.0086 0.284033,0.01244 0.43512,0.01296 0.678724,-0.0078 1.247827,-0.09848 1.760952,-0.246196 1.18874,-0.342602 2.081526,-0.982195 3.309916,-1.589911 1.866428,-0.923366 3.380666,-3.497026 4.547896,-6.45527 1.752141,-4.440088 2.692611,-9.764409 2.692352,-11.936898 a 0.29103008,0.29103008 0 0 1 0.581801,0 c 0,2.211103 -0.950318,7.631311 -2.734335,12.149923 -1.228909,3.112959 -2.866504,5.79028 -4.830633,6.761849 -0.886048,0.437971 -1.603645,0.88864 -2.375147,1.239793 0.085,0.0793 0.124394,0.180112 0.124912,0.302952 0,0.0806 -0.03239,0.18374 -0.04406,0.28792 -0.302951,2.677585 -1.670508,6.718835 -1.999374,10.458165 -0.138389,1.57229 -0.09226,3.09016 0.308911,4.4235 0.04302,0.14254 0.183741,0.25838 0.344157,0.44886 0.253971,0.3014 0.571176,0.7303 0.820482,1.48832 0.247492,0.75362 0.430196,1.84466 0.403503,3.48718 -0.0021,0.11999 -0.05857,0.25086 -0.216912,0.35504 -0.211729,0.13942 -0.754138,0.26149 -1.472514,0.33871 -1.979419,0.21303 -5.382112,0.19774 -6.205704,0.12025 -1.045687,-0.098 -1.326869,-0.53904 -1.280222,-0.991 0.0298,-0.29077 0.229352,-0.64011 0.529452,-0.98557 0.510275,-0.5875 1.303027,-1.19003 1.736592,-1.50724 0.185295,-0.13476 0.49939,-0.3128 0.863242,-0.45455 a 4.0153339,4.0153339 0 0 1 0.549925,-0.17104 c -0.361779,-0.7303 -1.244458,-2.49618 -2.11703,-4.11978 -0.634409,-1.18174 -1.26208,-2.28781 -1.676727,-2.8551 -1.37844,-1.88586 -2.486324,-3.47396 -3.475775,-5.1297 -0.992042,-1.66066 -1.864873,-3.38973 -2.76958,-5.555745 -0.400393,-0.95887 -0.617046,-1.477956 -0.75051,-2.005075 -0.137352,-0.54241 -0.187628,-1.093371 -0.252157,-2.135948 a 40.207244,40.207244 0 0 1 -0.03058,-0.959648 c -0.01944,-0.782645 -0.03887,-1.786609 -0.04509,-2.11081 -0.124394,-0.139684 -0.379143,-0.424495 -0.463368,-0.5209 a 0.35167214,0.35167214 0 0 1 -0.06557,-0.102625 z"
     style="stroke:#000000;stroke-width:0.259154;stroke-dasharray:none;stroke-opacity:1"
     id="path12" />
  <path
     d="m 91.201591,64.254772 c 2.789794,5.300479 -2.357266,11.376089 -3.804382,13.307046 -3.565184,4.755478 -7.827751,8.049845 -12.008943,12.974033 -0.66188,0.779276 -3.028475,3.528124 -3.864765,4.24002 -0.506388,0.431233 0.877236,-0.768392 1.313911,-1.236165 1.007073,-1.079118 1.865391,-2.256714 2.824262,-3.299291 0.189182,-0.204732 -0.527897,0.596573 -0.527897,0.596573 0,0 -0.05053,2.72345 -0.07775,3.163494 -0.124394,2.011814 -0.187109,2.14787 -0.981157,4.048506 -1.797493,4.303252 -3.468001,6.870172 -6.212702,10.626872 -1.162824,1.59095 -3.991492,7.36413 -3.991492,7.36413 0.27289,-0.21977 -7.846927,-0.68417 0,0 0.654105,0.057 1.361596,0.41024 1.671544,0.63674 0.937102,0.68494 3.603538,2.73433 1.128617,2.96653 -1.167749,0.10937 -7.570151,0.0917 -7.580258,-0.53282 -0.07153,-4.40043 1.374553,-4.73371 1.55622,-5.33728 1.365483,-4.53934 -1.245754,-11.16436 -1.679319,-14.996727 -0.03188,-0.282478 -0.267965,-0.550702 0.843288,-0.295694 0.06531,0.01477 1.433122,0.145903 2.355711,0.08941 1.63889,-0.09978 3.317432,-0.174411 0.169487,0 C 59.589712,98.72227 58.283835,97.992233 56.51459,96.718231 53.374937,94.45763 47.308139,87.899217 46.542598,77.976983"
     fill="#fffef4"
     style="stroke:#000000;stroke-width:0.259154;stroke-dasharray:none;stroke-opacity:1"
     id="path14" />
  <path
     d="m 71.648413,94.273112 c 0.340787,-0.333272 0.791975,-0.817113 1.261303,-1.336198 a 121.33622,121.33622 0 0 0 2.262156,-2.584804 c 2.907709,-3.423685 5.854292,-6.061096 8.579038,-8.947296 1.189777,-1.260266 2.33757,-2.568994 3.419798,-4.012742 0.923625,-1.231759 3.377556,-4.167717 4.252719,-7.505622 0.468551,-1.786608 0.481249,-3.690354 -0.470883,-5.500546 a 0.28221884,0.28221884 0 0 1 0.498872,-0.262264 c 1.02314,1.943397 1.021067,3.987346 0.518049,5.906123 -0.896673,3.421612 -3.399843,6.438943 -4.346015,7.701542 -1.095444,1.461629 -2.256714,2.786166 -3.461003,4.061981 -1.957391,2.074529 -4.030624,4.019481 -6.120961,6.222032 a 112.84426,112.84426 0 0 1 -2.105109,2.34664 l -0.0565,0.06479 c -0.08474,0.0964 -0.338973,0.381216 -0.463886,0.5209 -0.0057,0.323942 -0.02514,1.328424 -0.04457,2.11081 -0.01089,0.444449 -0.02229,0.81815 -0.0311,0.959648 -0.06453,1.042836 -0.114546,1.593538 -0.251638,2.135948 -0.133724,0.527119 -0.350377,1.046205 -0.75077,2.005075 -0.904448,2.165751 -1.777279,3.895081 -2.76958,5.555231 -0.989191,1.65651 -2.097593,3.24435 -3.475775,5.13021 -0.414646,0.56755 -1.042318,1.67362 -1.676986,2.8551 -0.872054,1.6236 -1.754992,3.38974 -2.116771,4.12003 a 3.953137,3.953137 0 0 1 0.549666,0.17105 c 0.363852,0.14175 0.678465,0.31927 0.863242,0.45481 0.433824,0.31669 1.226577,0.91974 1.736592,1.50672 0.3001,0.3452 0.499908,0.69454 0.529711,0.98557 0.04665,0.4517 -0.234534,0.89304 -1.280221,0.991 -0.823592,0.0772 -4.226027,0.0928 -6.205705,-0.12025 -0.718375,-0.0772 -1.260785,-0.19929 -1.472255,-0.33845 -0.158602,-0.10444 -0.215097,-0.23531 -0.216912,-0.35504 -0.02669,-1.64278 0.155493,-2.73382 0.403503,-3.48744 0.249307,-0.75777 0.565993,-1.18692 0.820223,-1.48832 0.160417,-0.19022 0.301396,-0.30606 0.344675,-0.44886 0.400653,-1.33334 0.446523,-2.85121 0.308394,-4.4235 -0.329126,-3.73933 -1.696164,-7.78058 -1.999115,-10.458161 -0.01166,-0.10418 -0.04458,-0.207324 -0.04458,-0.28792 2.59e-4,-0.06712 0.01244,-0.127763 0.0368,-0.181668 C 57.876185,98.009078 57.15781,97.538195 56.345621,96.953284 54.465976,95.6005 51.54816,92.727776 49.319175,88.528184 47.780318,85.629286 46.569032,82.09857 46.252864,77.99927 a 0.29103008,0.29103008 0 0 1 0.579987,-0.04457 c 0.309171,4.010151 1.494023,7.465193 2.99919,10.301376 2.175081,4.099041 5.018002,6.906457 6.852035,8.227366 0.916629,0.660065 1.703939,1.172672 2.644927,1.482621 0.504314,0.165858 1.052944,0.273148 1.689685,0.314613 0.06997,0.0031 0.141239,0.0057 0.213284,0.0078 0.313577,0.0096 0.636483,0.01063 0.917147,-0.0067 0.798194,-0.04872 1.605459,-0.09122 1.863577,-0.102625 l 0.184777,-0.0073 c 1.909966,-0.116619 2.780723,-0.03758 2.829963,0.09796 0.192551,0.08112 -0.08422,0.192552 -0.937361,0.304247 -0.463367,0.07256 -1.087151,0.135538 -1.845955,0.173115 l -0.216912,0.01477 c -0.200326,0.01296 -0.712414,0.04354 -1.675431,0.09666 a 11.231999,11.231999 0 0 1 -1.398396,-0.0026 c -0.630522,-0.02825 -1.166193,-0.08448 -1.20714,-0.09407 a 3.9386243,3.9386243 0 0 0 -0.501204,-0.08111 c 0.0044,0.02255 0.0075,0.04431 0.0096,0.06297 0.302951,2.681207 1.670508,6.727897 1.999115,10.472417 0.145126,1.64951 0.08967,3.24124 -0.331717,4.63989 -0.04691,0.15809 -0.154974,0.30658 -0.308394,0.48359 -0.236089,0.2734 -0.592685,0.65436 -0.860391,1.46784 -0.229611,0.69713 -0.393137,1.70006 -0.376551,3.19693 0.08111,0.0295 0.270038,0.0948 0.439266,0.1275 0.694533,0.13373 1.848287,0.20888 3.019145,0.2462 1.619195,0.0516 3.27234,0.0293 3.809048,-0.021 0.237126,-0.0223 0.420607,-0.0612 0.557181,-0.11818 0.0933,-0.0389 0.159639,-0.0803 0.190738,-0.13942 0.02436,-0.0459 0.01944,-0.0985 0.006,-0.15498 a 0.9308816,0.9308816 0 0 0 -0.112473,-0.25371 c -0.390027,-0.65047 -1.411612,-1.41679 -1.912557,-1.78246 -0.156529,-0.11455 -0.423976,-0.26304 -0.732629,-0.38355 -0.250084,-0.0972 -0.527119,-0.17622 -0.794566,-0.19955 -1.710418,-0.14901 -2.664882,-0.24386 -3.113219,-0.29854 -0.198253,-0.0244 -0.308912,-0.0433 -0.349858,-0.0544 -0.121284,-0.034 -0.165081,-0.10418 -0.18089,-0.1288 -0.07101,-0.11144 -0.06323,-0.2164 0.0034,-0.31565 0.01918,-0.028 0.07593,-0.11196 0.218727,-0.1288 0.203176,-0.0246 2.357784,0.12024 3.18604,0.25604 0.04276,0.007 0.08293,0.0148 0.119989,0.0225 0.321351,-0.64944 1.257415,-2.52831 2.181559,-4.24883 0.649959,-1.20948 1.294993,-2.34068 1.719488,-2.92145 1.366778,-1.87005 2.46611,-3.44416 3.447268,-5.0859 0.979084,-1.63811 1.840512,-3.3449 2.733298,-5.48266 0.385103,-0.920774 0.596055,-1.41835 0.724336,-1.924996 0.130614,-0.515717 0.17467,-1.039468 0.23583,-2.03125 l 0.05701,-2.34094 c -0.393655,0.476326 -0.785755,0.961203 -1.196514,1.43701 a 23.206474,23.206474 0 0 1 -0.587244,0.655142 c -0.219244,0.235052 -0.674837,0.653068 -1.015625,0.960425 -0.12232,0.119729 -0.230906,0.220799 -0.321351,0.298027 -0.527119,0.448337 -0.772279,0.447818 -0.800786,0.274444 -0.08086,-0.07982 -0.03369,-0.262005 0.258377,-0.549147 0.03239,-0.0355 0.06738,-0.07127 0.105735,-0.105476 0.06997,-0.06272 0.209914,-0.187887 0.37681,-0.339233 z"
     style="stroke:#000000;stroke-width:0.259154;stroke-dasharray:none;stroke-opacity:1"
     id="path16" />
  <path
     d="m 65.254821,44.578755 c -0.136833,-0.276259 2.217323,2.779687 4.215661,4.159942 1.310283,0.904707 2.13232,0.738589 3.718084,1.181224 5.024998,1.402024 11.870295,3.302142 15.688413,7.15395 6.432205,6.489219 1.352007,12.398451 -4.890757,18.046715 C 68.652332,88.993106 33.957815,86.291165 16.277803,76.268898 5.7131256,70.279846 0.24678776,65.77186 6.2329888,57.278084 10.309483,51.493505 16.575052,52.551631 20.631851,48.025505"
     fill="#fffef4"
     style="stroke:#000000;stroke-width:0.259154;stroke-dasharray:none;stroke-opacity:1"
     id="path18" />
  <path
     d="m 65.115656,44.823655 a 0.28092307,0.28092307 0 0 1 -0.11351,-0.119729 c -0.06893,-0.139943 -0.02073,-0.23583 -0.0067,-0.264596 a 0.26874282,0.26874282 0 0 1 0.199031,-0.154456 0.2734076,0.2734076 0 0 1 0.181407,0.02306 c 0.01711,0.0083 0.0565,0.03058 0.105476,0.07982 0.05701,0.05701 0.185555,0.205769 0.368517,0.417757 0.72304,0.83629 2.344049,2.708678 3.781059,3.70072 0.491097,0.339492 0.909631,0.519086 1.329461,0.638556 0.673023,0.191256 1.350452,0.237126 2.304398,0.503278 3.006447,0.838622 6.661816,1.856061 9.936746,3.358637 2.245053,1.029878 4.31077,2.288331 5.876579,3.867616 2.75429,2.778132 3.448564,5.459859 2.877129,8.055806 -0.791456,3.597059 -4.074939,7.050547 -7.778251,10.40115 -7.810944,7.067656 -20.611343,9.87585 -33.659494,9.601665 C 37.82258,84.666269 24.898305,81.486707 16.135786,76.520018 10.241066,73.179004 5.9302968,70.276477 4.2546062,66.91784 2.8673542,64.137894 3.2309475,61.034264 5.9958628,57.11093 7.1535042,55.468411 8.483224,54.364674 9.8896534,53.528383 11.695439,52.454967 13.62847,51.827814 15.479867,51.056571 c 1.790755,-0.746364 3.5048,-1.628783 4.93559,-3.225173 a 0.29106094,0.29106094 0 0 1 0.433306,0.388731 c -1.492987,1.665325 -3.276745,2.594392 -5.145246,3.372632 -1.826777,0.761136 -3.735448,1.375849 -5.517391,2.434753 -1.3421594,0.797676 -2.6114963,1.85036 -3.7162703,3.417725 -2.6008708,3.690354 -3.0020414,6.5991 -1.6974595,9.214483 1.6388906,3.284779 5.8827988,6.089604 11.6479408,9.358056 8.692548,4.928334 21.515494,8.076279 34.109088,8.342171 12.891622,0.272371 25.547932,-2.468961 33.265541,-9.450573 3.60613,-3.261973 6.834931,-6.599619 7.606174,-10.101828 0.535153,-2.431125 -0.146163,-4.931444 -2.725524,-7.534129 -1.520716,-1.534192 -3.530197,-2.751957 -5.709943,-3.752551 -3.247201,-1.490137 -6.87199,-2.496691 -9.853039,-3.328576 -0.954724,-0.266669 -1.632671,-0.312799 -2.306731,-0.504314 -0.472179,-0.134501 -0.943062,-0.335345 -1.495579,-0.71682 -1.475882,-1.019253 -3.144835,-2.93803 -3.887311,-3.796867 a 33.783849,33.783849 0 0 0 -0.307357,-0.350636 z m 0.419052,-0.279627 z"
     style="stroke:#000000;stroke-width:0.259154;stroke-dasharray:none;stroke-opacity:1"
     id="path20" />
  <path
     d="m 60.984739,42.192464 c 4.511096,2.513535 4.537789,0.329644 7.515988,1.992636 4.743816,2.649073 4.237947,9.055363 0.515198,12.185945 -5.571295,4.684988 -13.542098,3.919965 -18.474579,-0.370591 -2.304657,-2.005075 -2.624194,-5.897829 -6.082865,-5.846517 -2.35908,0.0355 -4.581845,3.394919 -5.943441,4.870025 -2.107441,2.283147 -5.081235,2.967055 -8.101417,2.731743 C 25.976905,57.410512 19.605601,55.448197 17.836874,50.824887 15.115755,43.713698 27.208923,40.534396 29.024557,34.885872"
     fill="#fffef4"
     style="stroke:#000000;stroke-width:0.259154;stroke-dasharray:none;stroke-opacity:1"
     id="path22" />
  <path
     d="m 60.847387,42.43866 c 1.306137,0.727705 2.246867,1.069788 2.992194,1.227095 0.807524,0.170523 1.388029,0.126208 1.955836,0.107808 0.710082,-0.02255 1.398136,0.0049 2.567699,0.658251 2.264748,1.264932 3.279077,3.424204 3.286852,5.642563 0.0078,2.251013 -1.013293,4.563186 -2.816746,6.079497 -2.676544,2.250494 -5.918562,3.215584 -9.097088,3.120215 -3.305769,-0.09951 -6.543123,-1.345528 -9.00716,-3.48951 -0.75673,-0.658252 -1.289551,-1.529269 -1.798011,-2.388105 -0.568325,-0.960425 -1.108662,-1.906338 -1.851657,-2.570809 -0.664989,-0.595277 -1.487544,-0.974938 -2.624972,-0.957834 -0.798194,0.01192 -1.585505,0.369036 -2.330314,0.914296 -1.523307,1.115658 -2.877388,3.026661 -3.819931,4.04721 -1.019772,1.104774 -2.250236,1.821076 -3.590581,2.232872 -1.348379,0.414387 -2.807675,0.521159 -4.277857,0.406613 -2.60087,-0.2024 -5.877615,-0.966904 -8.471748,-2.514573 -1.734259,-1.035061 -3.163494,-2.42024 -3.856991,-4.232505 -0.821518,-2.148128 -0.213284,-3.917633 1.042577,-5.506248 1.617381,-2.046799 4.282004,-3.799717 6.488701,-5.649559 1.694868,-1.420683 3.120216,-2.902786 3.663144,-4.591175 A 0.29103008,0.29103008 0 1 0 28.74778,34.796723 c -0.513125,1.595871 -1.880681,2.98105 -3.482772,4.324246 -2.2365,1.875239 -4.930666,3.660293 -6.570075,5.735081 -1.383883,1.751363 -2.034101,3.704867 -1.128098,6.071981 0.739367,1.932253 2.252049,3.418761 4.101373,4.521462 2.67162,1.593798 6.044511,2.384995 8.722869,2.593355 1.543781,0.119988 3.075641,0.0041 4.491141,-0.430973 1.435454,-0.44134 2.751957,-1.209732 3.844033,-2.39303 0.799231,-0.866352 1.89649,-2.387846 3.144576,-3.494175 0.813744,-0.720966 1.688389,-1.270891 2.592059,-1.284108 0.967941,-0.01451 1.668953,0.305283 2.234946,0.811152 0.702048,0.62819 1.20377,1.528491 1.741256,2.436049 0.539559,0.910927 1.111771,1.829628 1.915149,2.528048 2.561738,2.228467 5.927632,3.524496 9.364793,3.627121 3.312767,0.09926 6.690582,-0.908853 9.479599,-3.254716 1.932253,-1.625156 3.02692,-4.103446 3.01785,-6.515912 -0.0088,-2.412466 -1.115141,-4.758847 -3.577882,-6.134178 -1.302768,-0.726928 -2.070382,-0.754398 -2.86158,-0.728742 -0.528674,0.01684 -1.069011,0.06298 -1.820817,-0.09589 -0.706195,-0.149272 -1.596389,-0.47788 -2.834368,-1.167748 a 0.28221884,0.28221884 0 0 0 -0.274445,0.492652 z"
     style="stroke:#000000;stroke-width:0.259154;stroke-dasharray:none;stroke-opacity:1"
     id="path24" />
  <ellipse
     cx="47.622494"
     cy="29.501167"
     rx="6.0338855"
     ry="5.2753415"
     fill="#fffef4"
     style="stroke:#000000;stroke-width:0.259154;stroke-dasharray:none;stroke-opacity:1"
     id="ellipse26" />
  <path
     d="m 47.622234,23.935056 c -1.663769,0 -3.177748,0.567029 -4.304809,1.490136 -1.24394,1.018476 -2.018033,2.46922 -2.017774,4.075976 2.59e-4,1.605719 0.774871,3.056205 2.01907,4.074162 1.12732,0.921552 2.640262,1.487804 4.303772,1.487545 1.662992,-2.6e-4 3.175675,-0.56703 4.301959,-1.4891 1.243162,-1.017698 2.016219,-2.467406 2.016219,-4.072607 -5.18e-4,-1.604941 -0.774093,-3.053872 -2.017515,-4.070793 -1.126284,-0.921034 -2.638448,-1.487026 -4.300663,-1.486767 z m 0,0.572471 c 1.523567,0 2.910301,0.516235 3.942253,1.360559 1.109957,0.908854 1.807859,2.19996 1.8076,3.633082 -2.59e-4,1.432604 -0.69868,2.722932 -1.808896,3.631008 -1.031433,0.843547 -2.417908,1.358227 -3.940698,1.357968 -1.52253,0 -2.908227,-0.515717 -3.939142,-1.359782 -1.10918,-0.908076 -1.806823,-2.197627 -1.806304,-3.629194 0,-1.431827 0.698161,-2.720341 1.8076,-3.627639 1.030655,-0.843029 2.416093,-1.35719 3.937846,-1.356931 z"
     style="stroke:#000000;stroke-width:0.259154;stroke-dasharray:none;stroke-opacity:1"
     id="path28" />
  <path
     d="m 52.276134,18.515603 a 0.28210481,0.28210481 0 0 1 -0.108964,-0.04866 c -0.13294,-0.09768 -0.125889,-0.208052 -0.126241,-0.23591 a 0.26447326,0.26447326 0 0 1 0.15551,-0.254952 0.2831627,0.2831627 0 0 1 0.217926,-0.01657 c 0.06559,0.01975 0.288806,0.147047 0.350516,0.234852 0.08675,0.122716 0.152336,0.284221 0.15692,0.440436 0.0042,0.132237 -0.03138,0.261653 -0.119542,0.3752 -0.117426,0.150926 -0.298678,0.244021 -0.504967,0.308905 -0.173846,0.05466 -0.373789,0.07828 -0.50391,0.18372 -0.0476,0.03879 -0.06982,0.09874 -0.06982,0.187953 0,0.132589 0.107551,0.251778 0.203114,0.380841 0.150222,0.202763 0.30397,0.410463 0.362505,0.619926 0.04443,0.159741 0.04302,0.321952 -0.02573,0.488746 -0.08005,0.193595 -0.228856,0.293742 -0.427389,0.32971 -0.173141,0.03174 -0.405524,-0.0046 -0.625215,-0.01798 a 0.88263542,0.88263542 0 0 0 -0.167851,0.0025 c -0.03456,0.0046 -0.06912,0.0074 -0.08922,0.03597 -0.05536,0.07864 0.0067,0.140348 0.05995,0.204879 0.131179,0.1608 0.312784,0.315605 0.420338,0.475699 0.105789,0.157979 0.153745,0.323715 0.124124,0.495094 -0.0268,0.157273 -0.139992,0.291979 -0.340287,0.374142 -0.157981,0.06488 -0.392479,0.100147 -0.595594,0.149868 a 1.0585983,1.0585983 0 0 0 -0.142112,0.04302 c -0.0141,0.0056 -0.03526,0.01763 -0.04302,0.02186 -0.01482,0.02468 -0.0099,0.06206 -0.012,0.103321 -0.0042,0.07441 7.77e-4,0.157979 0.0095,0.245079 0.03244,0.326536 0.111431,0.692919 0.106141,0.897798 a 0.29092058,0.29092058 0 1 1 -0.581487,-0.01516 c 0.007,-0.26271 -0.132941,-0.800825 -0.113196,-1.158746 0.01024,-0.186189 0.06136,-0.338173 0.142465,-0.439378 0.07088,-0.08816 0.186189,-0.162563 0.333941,-0.213341 0.169968,-0.05783 0.394945,-0.08922 0.57655,-0.136821 0.02187,-0.0056 0.04831,-0.01481 0.07194,-0.02363 -0.0053,-0.0074 -0.01094,-0.01481 -0.01586,-0.02257 a 1.4891608,1.4891608 0 0 0 -0.165032,-0.191479 c -0.192184,-0.199236 -0.380138,-0.412225 -0.42351,-0.63262 -0.03138,-0.159742 -0.0085,-0.328652 0.11813,-0.507436 0.1005,-0.142463 0.238733,-0.223215 0.402352,-0.259889 0.190774,-0.04267 0.427742,-0.0127 0.643553,0.006 0.04831,0.0042 0.09486,0.0074 0.138582,0.0067 0.02221,-3.62e-4 0.05501,-0.0053 0.07264,-0.0085 0.03244,-0.104026 -0.03668,-0.197473 -0.101557,-0.295857 -0.116368,-0.177374 -0.268002,-0.352631 -0.363565,-0.528947 -0.07652,-0.141052 -0.121657,-0.284573 -0.121657,-0.428799 2.59e-4,-0.306436 0.117075,-0.496152 0.281399,-0.629094 0.157981,-0.127652 0.378726,-0.193594 0.595594,-0.254599 0.125184,-0.03526 0.2546,-0.05536 0.324069,-0.144226 0.01622,-0.02045 -0.0035,-0.04584 -0.01234,-0.06876 a 0.34839944,0.34839944 0 0 0 -0.0275,-0.05501 z m 0.311726,-0.399179 a 0.25389433,0.25389433 0 0 0 -0.08675,-0.104026 c 0.03844,0.02821 0.06735,0.06418 0.08675,0.104026 z m 3.106678,1.911966 a 0.2729364,0.2729364 0 0 1 -0.08357,-0.08216 c -0.07441,-0.112137 -0.05431,-0.194653 -0.05043,-0.218632 0.02291,-0.132236 0.102262,-0.201705 0.216868,-0.227447 a 0.28034165,0.28034165 0 0 1 0.243667,0.05713 c 0.05395,0.04196 0.21969,0.239083 0.250368,0.34452 0.04232,0.144931 0.05572,0.319484 0.01762,0.469352 a 0.57443592,0.57443592 0 0 1 -0.228152,0.339583 c -0.161504,0.113195 -0.367441,0.142463 -0.589599,0.13259 -0.178077,-0.0078 -0.370968,-0.05783 -0.521894,0.0028 -0.05501,0.02221 -0.08886,0.07546 -0.114604,0.162563 -0.04161,0.139642 0.02397,0.305731 0.07828,0.477462 0.07899,0.250368 0.161505,0.506731 0.156216,0.732415 -0.0039,0.17561 -0.05395,0.337115 -0.168204,0.47852 -0.139995,0.173142 -0.318778,0.220394 -0.527185,0.18231 -0.172436,-0.03138 -0.379782,-0.150221 -0.582544,-0.242257 a 0.86570913,0.86570913 0 0 0 -0.158333,-0.05818 c -0.02856,-0.0067 -0.05642,-0.01834 -0.07969,-3.63e-4 -0.0878,0.06806 -0.03773,0.163268 -0.0018,0.260594 0.07652,0.206642 0.199942,0.424921 0.252836,0.621689 0.05007,0.187599 0.04549,0.36321 -0.02997,0.517309 -0.07511,0.153042 -0.227094,0.247547 -0.448194,0.258479 -0.169967,0.0085 -0.403762,-0.04055 -0.612166,-0.06418 a 1.3840767,1.3840767 0 0 0 -0.175611,-0.0028 0.4707624,0.4707624 0 0 0 -0.03244,0.06136 1.6115237,1.6115237 0 0 0 -0.08075,0.29621 c -0.06629,0.337821 -0.101205,0.729946 -0.166794,0.932004 a 0.29094137,0.29094137 0 0 1 -0.553279,-0.180194 c 0.08499,-0.259889 0.113901,-0.844552 0.237676,-1.197888 0.06594,-0.186894 0.16221,-0.324068 0.270466,-0.397415 0.09733,-0.06594 0.234148,-0.1005 0.396006,-0.09803 0.152688,0.0025 0.336763,0.03773 0.504967,0.06065 0.04408,0.006 0.101557,0.0085 0.145636,0.0095 -0.0032,-0.01481 -0.0081,-0.03033 -0.01234,-0.04619 a 1.7007394,1.7007394 0 0 0 -0.100148,-0.25601 c -0.116368,-0.257421 -0.229211,-0.525421 -0.210169,-0.75322 0.01446,-0.175611 0.0878,-0.338526 0.26412,-0.475347 0.144579,-0.111784 0.307497,-0.144226 0.481695,-0.119542 0.192536,0.02715 0.406584,0.141405 0.604409,0.237321 0.04373,0.02116 0.08675,0.0409 0.128007,0.05607 0.01659,0.006 0.04055,0.01199 0.05783,0.01587 0.06136,-0.0998 0.02187,-0.225331 -0.012,-0.355805 -0.05677,-0.217573 -0.146696,-0.445725 -0.184074,-0.655188 -0.02892,-0.163268 -0.02892,-0.318073 0.01306,-0.457715 0.09063,-0.30291 0.257068,-0.45031 0.447842,-0.526478 0.192536,-0.07723 0.428094,-0.06559 0.659418,-0.04831 0.07758,0.006 0.1541,0.01164 0.226036,0.006 0.04126,-0.0032 0.08111,-0.0074 0.113549,-0.02997 0.0056,-0.0039 0.0039,-0.01199 0.0053,-0.01869 a 0.25107328,0.25107328 0 0 0 0.0042,-0.07123 0.42139406,0.42139406 0 0 0 -0.0127,-0.08005 z m 0.402352,-0.366032 z m -0.0067,-0.01199 0.0046,0.0078 -0.0028,-0.0049 z m -7.581919,2.446201 c -0.0053,-0.0025 -0.01127,-0.0046 -0.01622,-0.0081 a 0.89321435,0.89321435 0 0 0 -0.135763,-0.07335 c -0.18478,-0.08639 -0.388954,-0.172789 -0.525422,-0.307142 a 0.6742305,0.6742305 0 0 1 -0.200645,-0.381194 0.84243549,0.84243549 0 0 1 0.07863,-0.534236 c 0.12201,-0.240494 0.371674,-0.420336 0.603352,-0.602294 0.132236,-0.103673 0.273641,-0.197473 0.271174,-0.367089 -0.0013,-0.111078 -0.08957,-0.130473 -0.167147,-0.158684 -0.153748,-0.05642 -0.315958,-0.107552 -0.437263,-0.199942 A 0.63050425,0.63050425 0 0 1 47.739882,19.10556 c -0.05889,-0.230621 -0.02467,-0.464768 0.067,-0.695741 0.07969,-0.200647 0.204524,-0.399883 0.326889,-0.589951 0.108961,-0.169616 0.217925,-0.328653 0.264824,-0.476052 a 0.24472592,0.24472592 0 0 0 0.0127,-0.10579 0.10614193,0.10614193 0 0 0 -0.02962,-0.06488 c -0.0053,-0.0046 -0.0085,-0.01305 -0.01482,-0.01199 a 0.28210481,0.28210481 0 0 1 -0.08322,-0.55751 c 0.185132,-0.02786 0.387541,0.04373 0.527889,0.203116 0.137878,0.15692 0.221805,0.403057 0.125889,0.707378 -0.04937,0.15692 -0.147046,0.328299 -0.259182,0.505672 -0.121305,0.191479 -0.262005,0.393537 -0.343465,0.599473 -0.04549,0.114958 -0.07335,0.230268 -0.04408,0.344873 0.0085,0.03209 0.03174,0.04831 0.05642,0.06242 0.04337,0.02504 0.09345,0.04267 0.143872,0.05995 0.139643,0.04902 0.2814,0.09803 0.391422,0.178431 0.154453,0.11249 0.267999,0.273642 0.272231,0.549752 a 0.82163026,0.82163026 0 0 1 -0.171379,0.516252 c -0.12342,0.167147 -0.312431,0.304673 -0.492978,0.445373 -0.156921,0.12201 -0.329709,0.234852 -0.293036,0.45701 0.0081,0.04902 0.04619,0.07617 0.08463,0.102615 0.05289,0.03562 0.1139,0.06418 0.174905,0.09204 0.159388,0.07264 0.318778,0.142816 0.428447,0.236263 0.130826,0.111079 0.210166,0.250368 0.214398,0.434441 0.0028,0.116016 -0.03667,0.229563 -0.115663,0.333942 -0.07758,0.102615 -0.20241,0.199589 -0.329709,0.281047 -0.09732,0.06206 -0.196063,0.110373 -0.240142,0.150926 -0.129769,0.117779 -0.152336,0.275052 -0.132589,0.434441 0.0254,0.206289 0.117778,0.418221 0.216516,0.601589 a 0.29092058,0.29092058 0 1 1 -0.512374,0.275404 c -0.161857,-0.301852 -0.296915,-0.664709 -0.290214,-0.99724 0.0053,-0.27611 0.09944,-0.534589 0.329357,-0.742641 0.06383,-0.05818 0.209461,-0.137879 0.349456,-0.230268 0.04408,-0.02892 0.103675,-0.08181 0.134001,-0.109316 z m -4.730193,-3.178968 c 0.03985,-0.0127 0.09133,-0.02786 0.130474,-0.03667 0.07335,-0.01657 0.141052,-0.0201 0.188657,-0.0141 0.159037,0.0201 0.312431,0.07758 0.435148,0.179136 0.11813,0.09768 0.211226,0.235558 0.252131,0.429152 0.01586,0.07476 0.01938,0.166795 0.01024,0.272231 -0.02363,0.277168 -0.144932,0.680578 -0.196063,1.025804 a 1.2084665,1.2084665 0 0 0 -0.01692,0.275405 0.26870483,0.26870483 0 0 0 0.0074,0.04126 c 0.06171,-0.0208 0.175259,-0.061 0.252131,-0.09591 0.235559,-0.108258 0.484163,-0.20241 0.661888,-0.183368 0.192183,0.0208 0.352631,0.118484 0.429154,0.375199 0.0469,0.157979 0.03385,0.314194 -0.02081,0.468294 -0.06841,0.191831 -0.214398,0.382605 -0.337468,0.567736 a 1.29204,1.29204 0 0 0 -0.08181,0.137526 c 0.08287,-0.0275 0.18231,-0.06136 0.247547,-0.08604 0.130826,-0.04866 0.249664,-0.0744 0.330416,-0.06982 0.08322,0.0042 0.150574,0.03138 0.203467,0.07053 a 0.3445205,0.3445205 0 0 1 0.137176,0.220042 c 0.02115,0.107553 0.0042,0.234147 -0.0469,0.36321 -0.06665,0.166794 -0.19853,0.345578 -0.254246,0.447489 -0.126946,0.233089 -0.2211,0.459125 -0.223217,0.673525 -0.0013,0.184073 0.08005,0.351573 0.271174,0.502852 a 0.29127322,0.29127322 0 0 1 -0.3618,0.455599 c -0.28175,-0.22392 -0.422098,-0.474641 -0.470409,-0.737704 -0.06665,-0.363563 0.05395,-0.764504 0.276815,-1.17144 0.01659,-0.03068 0.04091,-0.06876 0.06841,-0.111432 a 1.1531034,1.1531034 0 0 1 -0.27999,0.06524 c -0.218278,0.01552 -0.375553,-0.06912 -0.455953,-0.253894 -0.07194,-0.165031 -0.06806,-0.330768 -0.01024,-0.497563 0.06418,-0.186189 0.212286,-0.377315 0.339233,-0.569146 0.04337,-0.06594 0.08428,-0.131884 0.108256,-0.199236 a 0.263768,0.263768 0 0 0 0.01622,-0.0663 c -0.067,0.02116 -0.183722,0.05995 -0.260595,0.09521 -0.113196,0.05148 -0.226389,0.103674 -0.328651,0.137174 -0.197476,0.06524 -0.371321,0.05642 -0.495096,-0.01516 -0.17984,-0.104027 -0.281752,-0.299384 -0.291979,-0.566679 -0.01094,-0.272231 0.07829,-0.641435 0.151631,-0.972203 0.04373,-0.196063 0.09027,-0.372731 0.06735,-0.482399 A 0.1875997,0.1875997 0 0 0 44.171609,19.48113 0.26235747,0.26235747 0 0 0 44.04572,19.42965 c -0.03456,0.01023 -0.197121,0.05677 -0.229564,0.06277 a 0.28739427,0.28739427 0 0 1 -0.295503,-0.119895 0.2729364,0.2729364 0 0 1 -0.04443,-0.205231 c 0.0046,-0.02715 0.0148,-0.113194 0.125889,-0.195005 a 0.28069429,0.28069429 0 0 1 0.175963,-0.05466 z m 0.178078,0.492978 -0.0056,0.0046 0.0026,-0.0018 z m 0.0127,-0.01199 -0.006,0.0056 0.0042,-0.0039 z m 0.01057,-0.01128 -2.59e-4,3.63e-4 z m -3.010059,2.269533 a 0.63649898,0.63649898 0 0 0 -0.10579,-0.01516 1.4408503,1.4408503 0 0 0 -0.128356,0.0018 c -0.373436,0.01975 -0.854779,0.136468 -1.153456,0.144932 -0.14317,0.0042 -0.259186,-0.01693 -0.337468,-0.05289 -0.197121,-0.09098 -0.286337,-0.244021 -0.308552,-0.423863 -0.03033,-0.24931 0.128004,-0.58713 0.221453,-0.747577 a 5.0073604,5.0073604 0 0 1 0.250366,-0.3283 c 0.168206,-0.186189 0.378373,-0.08393 0.410111,-0.0596 a 0.28210481,0.28210481 0 0 1 0.0013,0.446431 c -0.0328,0.04196 -0.169264,0.216868 -0.173848,0.225332 -0.03174,0.05431 -0.07863,0.138936 -0.113194,0.230973 -0.01446,0.03914 -0.02609,0.105789 -0.03174,0.1407 0.02962,0.0014 0.07652,0.0028 0.113546,3.62e-4 0.111079,-0.0078 0.242962,-0.02821 0.382252,-0.05043 0.410464,-0.06594 0.874526,-0.134705 1.141468,-0.05959 0.161505,0.04549 0.275756,0.134352 0.342757,0.254952 0.05607,0.101205 0.08357,0.233089 0.04725,0.405525 -0.01799,0.08498 -0.04937,0.167853 -0.08886,0.248253 -0.067,0.13541 -0.162213,0.264825 -0.232387,0.396709 a 2.2529595,2.2529595 0 0 0 -0.07652,0.158332 c -0.02257,0.05254 -0.04302,0.105789 -0.0603,0.159036 a 0.97326159,0.97326159 0 0 0 -0.03561,0.187248 c 0.02645,0.0021 0.06242,0.0039 0.08992,0.0014 0.151278,-0.01234 0.332883,-0.0603 0.51625,-0.1072 0.258833,-0.0663 0.520486,-0.130473 0.723248,-0.135058 0.203114,-0.0042 0.363914,0.05043 0.472173,0.149869 0.18619,0.171731 0.20629,0.403057 0.05924,0.671056 -0.114606,0.20911 -0.362152,0.460889 -0.547284,0.696799 -0.05043,0.06418 -0.09521,0.126242 -0.12589,0.186189 a 0.29092058,0.29092058 0 0 0 -0.0127,0.02927 0.32618369,0.32618369 0 0 0 0.02892,0.01305 c 0.06418,0.02363 0.141758,0.03879 0.22498,0.05148 0.289509,0.04337 0.63826,0.04902 0.872761,0.09309 0.08357,0.01552 0.156215,0.03632 0.214401,0.06101 0.180192,0.07617 0.311371,0.197826 0.410813,0.345578 0.173144,0.258126 0.22357,0.617105 0.336411,0.856189 a 0.29127322,0.29127322 0 0 1 -0.526479,0.247899 c -0.09133,-0.1943 -0.133999,-0.474289 -0.248252,-0.704204 -0.04408,-0.08851 -0.100852,-0.169968 -0.199235,-0.211931 -0.09169,-0.03914 -0.246842,-0.04831 -0.416106,-0.06242 -0.286337,-0.02398 -0.605467,-0.04761 -0.827624,-0.120247 -0.226037,-0.0737 -0.372379,-0.204174 -0.429859,-0.364973 -0.05889,-0.164326 -0.02503,-0.366736 0.103675,-0.577257 0.132941,-0.216868 0.375198,-0.460889 0.544109,-0.679873 0.02363,-0.02997 0.04866,-0.07017 0.06982,-0.105437 a 0.31525212,0.31525212 0 0 0 -0.02609,3.63e-4 c -0.08675,0.006 -0.184779,0.02468 -0.287041,0.04796 -0.376258,0.08498 -0.804,0.214753 -1.076584,0.189716 -0.161857,-0.01481 -0.288451,-0.07405 -0.377315,-0.167853 -0.122362,-0.129415 -0.203467,-0.363915 -0.07405,-0.765914 0.02291,-0.07123 0.05007,-0.142111 0.0804,-0.211931 0.02927,-0.06771 0.06171,-0.134 0.09662,-0.199237 0.0596,-0.112137 0.137881,-0.222158 0.201,-0.335705 a 0.59594641,0.59594641 0 0 0 0.06524,-0.154805 z m -1.233504,-0.989483 a 0.28175218,0.28175218 0 0 1 -0.260945,-0.04373 c 0.0543,0.04161 0.143167,0.08851 0.260945,0.04373 z"
     style="stroke:#000000;stroke-width:0.352631;stroke-dasharray:none;stroke-opacity:1"
     id="path30" />
  <g
     transform="matrix(0.35263101,0,0,0.35263101,-40.757096,-94.161995)"
     style="stroke:#000000;stroke-width:1;stroke-dasharray:none;stroke-opacity:1"
     id="g42">
    <ellipse
       cx="244.15199"
       cy="347.64301"
       rx="5.178"
       ry="3.0420001"
       fill="#fffef4"
       style="stroke:#000000;stroke-width:1;stroke-dasharray:none;stroke-opacity:1"
       id="ellipse32" />
    <path
       d="m 244.152,344.101 c -1.591,10e-4 -3.024,0.404 -4.034,1.036 -1.039,0.649 -1.64,1.546 -1.64,2.506 0.001,0.959 0.603,1.855 1.641,2.503 1.011,0.63 2.443,1.032 4.033,1.031 1.589,-0.001 3.021,-0.404 4.031,-1.035 1.035,-0.648 1.636,-1.542 1.635,-2.499 0,-0.957 -0.601,-1.851 -1.637,-2.497 -1.01,-0.63 -2.441,-1.031 -4.029,-1.03 z m 0,0.984 c 1.384,0.001 2.634,0.337 3.513,0.887 0.709,0.443 1.177,1.016 1.176,1.671 0,0.654 -0.469,1.226 -1.177,1.668 -0.88,0.548 -2.129,0.882 -3.512,0.882 -1.382,-10e-4 -2.631,-0.337 -3.509,-0.886 -0.706,-0.441 -1.173,-1.012 -1.172,-1.664 0,-0.653 0.468,-1.222 1.174,-1.662 0.878,-0.548 2.126,-0.881 3.507,-0.88 z"
       style="stroke:#000000;stroke-width:1;stroke-dasharray:none;stroke-opacity:1"
       id="path34" />
    <ellipse
       cx="258.55801"
       cy="347.64301"
       rx="5.178"
       ry="3.0420001"
       fill="#fffef4"
       style="stroke:#000000;stroke-width:1;stroke-dasharray:none;stroke-opacity:1"
       id="ellipse36" />
    <path
       d="m 258.558,344.101 c -1.59,10e-4 -3.023,0.404 -4.034,1.036 -1.039,0.649 -1.64,1.546 -1.64,2.506 0.001,0.959 0.603,1.855 1.641,2.503 1.011,0.63 2.444,1.032 4.033,1.031 1.589,-0.001 3.021,-0.404 4.031,-1.035 1.035,-0.648 1.636,-1.542 1.635,-2.499 0,-0.957 -0.601,-1.851 -1.637,-2.497 -1.01,-0.63 -2.441,-1.031 -4.029,-1.03 z m 0,0.984 c 1.384,0.001 2.634,0.337 3.513,0.887 0.709,0.443 1.177,1.016 1.177,1.671 -10e-4,0.654 -0.47,1.226 -1.178,1.668 -0.88,0.548 -2.129,0.882 -3.512,0.882 -1.382,-10e-4 -2.63,-0.337 -3.509,-0.886 -0.706,-0.441 -1.173,-1.012 -1.172,-1.664 0,-0.653 0.468,-1.222 1.174,-1.662 0.878,-0.548 2.126,-0.881 3.507,-0.88 z"
       style="stroke:#000000;stroke-width:1;stroke-dasharray:none;stroke-opacity:1"
       id="path38" />
    <path
       d="m 248.705,345.896 c 0.057,-0.07 0.133,-0.138 0.222,-0.199 0.086,-0.06 0.187,-0.113 0.287,-0.159 0.223,-0.102 0.469,-0.187 0.729,-0.254 a 5.17,5.17 0 0 1 0.748,-0.132 6.596,6.596 0 0 1 1.133,-0.019 c 0.403,0.03 0.795,0.103 1.151,0.226 0.107,0.036 0.537,0.318 0.726,0.426 a 0.5,0.5 0 0 1 -0.171,0.969 0.683,0.683 0 0 1 -0.325,-0.102 c -0.146,-0.084 -0.473,-0.324 -0.557,-0.354 a 3.62,3.62 0 0 0 -0.9,-0.179 5.508,5.508 0 0 0 -0.961,0.01 c -0.207,0.02 -0.411,0.054 -0.604,0.102 a 3.383,3.383 0 0 0 -0.568,0.194 l -0.156,0.082 a 1.025,1.025 0 0 1 -0.024,0.027 0.483,0.483 0 0 1 -0.317,0.266 0.47,0.47 0 0 1 -0.338,-0.024 0.458,0.458 0 0 1 -0.287,-0.383 0.493,0.493 0 0 1 0.064,-0.317 c 0.022,-0.039 0.129,-0.159 0.148,-0.18 z m 0.193,-0.039 h -0.001 l 0.012,-0.002 z m 0.027,-0.005 -0.004,0.001 0.022,-0.003 z m 0.062,-0.005 a 0.349,0.349 0 0 0 -0.044,0.003 l 0.024,-0.002 z m 0.007,0 h 0.007 z m -9.819,1.547 a 4.753,4.753 0 0 0 -0.461,-0.529 c -0.339,-0.342 -0.736,-0.671 -1.069,-1.008 -0.502,-0.509 -0.984,-1.035 -1.535,-1.533 a 9.685,9.685 0 0 0 -1.185,-0.923 c -0.535,-0.351 -1.323,-0.594 -1.968,-0.561 -0.673,0.034 -1.196,0.348 -1.366,0.97 a 0.5,0.5 0 1 0 0.965,0.262 c 0.033,-0.123 0.137,-0.18 0.257,-0.21 0.127,-0.032 0.272,-0.036 0.422,-0.024 a 2.62,2.62 0 0 1 1.148,0.391 c 0.395,0.257 0.745,0.537 1.068,0.827 0.539,0.483 1.01,0.995 1.501,1.489 0.334,0.336 0.732,0.664 1.073,1.005 0.137,0.137 0.263,0.275 0.369,0.418 a 0.485,0.485 0 0 0 0.781,-0.574 z m 25.222,0.14 a 0.485,0.485 0 0 1 -0.692,0.238 c -0.046,-0.026 -0.371,-0.294 -0.176,-0.671 0.035,-0.068 0.137,-0.233 0.144,-0.246 0.11,-0.211 0.214,-0.42 0.339,-0.626 0.088,-0.144 0.186,-0.286 0.301,-0.426 a 12.18,12.18 0 0 1 1.301,-1.364 c 0.46,-0.408 0.978,-0.79 1.562,-1.111 0.331,-0.181 0.719,-0.368 1.15,-0.472 0.28,-0.068 0.577,-0.102 0.888,-0.081 a 0.5,0.5 0 1 1 -0.067,0.997 2.05,2.05 0 0 0 -0.738,0.093 4.132,4.132 0 0 0 -0.758,0.334 7.595,7.595 0 0 0 -1.386,0.977 c -0.459,0.404 -0.855,0.835 -1.201,1.25 a 2.628,2.628 0 0 0 -0.222,0.312 c -0.114,0.186 -0.209,0.376 -0.309,0.567 z"
       style="stroke:#000000;stroke-width:1;stroke-dasharray:none;stroke-opacity:1"
       id="path40" />
  </g>
  <g
     transform="matrix(0.35263101,0,0,0.35263101,-40.757096,-94.161995)"
     style="stroke:#000000;stroke-width:1;stroke-dasharray:none;stroke-opacity:1"
     id="g84">
    <path
       d="m 405.017,440.858 c -2.988,18.747 25.126,58.591 31.557,65.43 17.098,18.185 37.306,29.368 33.483,27.669 -1.09,-0.485 -0.81,-0.786 -2.173,-1.694 -0.863,-0.576 0.511,1.695 0.663,2.307 0.435,1.745 3.755,8.708 10.389,22.509 3.991,8.303 17.629,25.849 25.631,35.354 0.017,0.02 3.038,-1.505 6.001,-1.292 3.045,0.219 4.538,3.254 4.384,2.832 -0.886,-2.421 -5.91,-3.98 -9.391,-1.952 -1.445,0.841 -2.919,0.322 -10.2,4.036 -1.425,0.727 -5.207,5.342 -3.775,6.06 8.116,4.073 23.457,2.761 24.555,1.852 2.437,-2.018 1.277,-6.417 -0.871,-9.546 -1.141,-1.663 -1.931,-2.285 -2.639,-2.659 -0.455,-0.24 -1.221,0.316 -0.89,-1.52 1.9,-10.548 2.839,-24.875 7.559,-46.74 0.053,-0.245 -3.691,1.389 -6.171,2.295 -3.199,1.168 -8.862,0.137 -9.694,-0.119 -0.996,-0.306 -2.852,-1.094 -2.63,-0.981 2.288,1.164 6.084,1.78 7.309,1.702 2.539,-0.163 3.055,-0.123 4.287,-0.382 0.702,-0.148 1.429,-0.546 3.267,-0.969 8.238,-1.897 18.908,-14.114 22.37,-75.709"
       fill="#fffef4"
       style="stroke:#000000;stroke-width:1;stroke-dasharray:none;stroke-opacity:1"
       id="path44" />
    <path
       d="m 466.799,532.532 a 221.47,221.47 0 0 1 -10.848,-7.8 c -6.048,-4.644 -13.254,-10.721 -19.981,-17.876 -3.954,-4.206 -16.066,-20.818 -24.189,-37.405 -5.219,-10.657 -8.758,-21.316 -7.578,-28.723 a 0.824,0.824 0 0 1 1.627,0.26 c -1.14,7.16 2.387,17.436 7.434,27.737 8.034,16.402 20.002,32.837 23.913,36.996 11.615,12.352 24.673,21.456 30.586,25.457 l 0.58,0.392 0.011,0.007 c 1.153,0.778 1.973,1.324 2.378,1.62 1.42,1.038 0.199,1.894 -0.461,1.73 a 3.862,3.862 0 0 1 -0.551,-0.211 5.115,5.115 0 0 1 -0.311,-0.15 c 0.293,0.97 1.221,3.077 2.81,6.491 1.711,3.675 4.183,8.83 7.467,15.662 1.725,3.588 5.273,8.916 9.378,14.568 5.191,7.145 11.274,14.801 15.746,20.137 0.107,-0.044 0.226,-0.092 0.357,-0.141 1.484,-0.857 3.217,-1.137 4.845,-0.997 a 8.471,8.471 0 0 1 0.865,0.045 6.63,6.63 0 0 1 0.037,-0.236 c 1.298,-7.205 2.146,-16.175 4.059,-28.108 a 349.547,349.547 0 0 1 3.122,-16.867 12,12 0 0 1 -2.237,0.753 c -0.499,0.115 -0.913,0.228 -1.265,0.334 -0.961,0.29 -1.497,0.529 -2.018,0.639 l -0.061,0.012 c -0.993,0.233 -2.121,0.328 -3.247,0.331 l -0.181,-10e-4 c -0.275,0.016 -0.578,0.034 -0.918,0.056 -0.727,0.046 -2.306,-0.125 -3.982,-0.511 -0.189,-0.044 -0.38,-0.09 -0.571,-0.14 a 5.395,5.395 0 0 1 -0.428,-0.106 c -0.064,-0.02 -0.132,-0.041 -0.202,-0.065 -0.921,-0.265 -1.818,-0.591 -2.563,-0.97 -2.309,-1.175 -0.753,-1.98 0.613,-1.571 0.032,0.009 0.143,0.05 0.31,0.116 0.449,0.179 1.435,0.579 2.139,0.812 l 0.189,0.054 0.224,0.059 0.218,0.056 a 26.98,26.98 0 0 0 4.896,0.522 c 0.942,-0.054 1.527,-0.078 2.034,-0.126 a 9.81,9.81 0 0 0 1.182,-0.182 l 0.052,-0.012 c 0.194,-0.05 0.382,-0.108 0.56,-0.173 1.848,-0.675 4.397,-1.753 5.56,-2.161 0.278,-0.097 0.502,-0.158 0.654,-0.187 3.367,-2.257 6.864,-7.051 9.979,-16.78 3.596,-11.233 6.603,-28.905 8.157,-56.586 a 0.85,0.85 0 1 1 1.697,0.096 c -1.569,27.888 -4.618,45.69 -8.242,57.007 -3.244,10.128 -7.003,15.17 -10.591,17.62 a 349.03,349.03 0 0 0 -3.418,18.238 c -1.916,11.946 -2.767,20.926 -4.067,28.139 a 3.896,3.896 0 0 0 -0.048,0.394 c 0.113,0.05 0.223,0.103 0.33,0.159 0.059,0.02 0.117,0.046 0.173,0.075 0.23,0.122 0.468,0.265 0.72,0.452 0.919,0.568 1.611,1.293 1.942,2.08 0.09,0.125 0.183,0.257 0.278,0.395 1.28,1.864 2.219,4.156 2.363,6.189 0.127,1.803 -0.362,3.412 -1.65,4.479 -0.198,0.164 -0.729,0.39 -1.556,0.555 -2.118,0.422 -6.615,0.769 -11.444,0.476 -4.391,-0.266 -9.05,-1.066 -12.465,-2.781 -0.509,-0.255 -0.774,-0.699 -0.781,-1.311 -0.005,-0.5 0.222,-1.19 0.638,-1.93 0.972,-1.728 2.949,-3.823 3.913,-4.314 2.133,-1.088 3.776,-1.818 5.068,-2.326 a 26.275,26.275 0 0 1 3.048,-1.006 c -4.445,-5.329 -10.334,-12.762 -15.382,-19.712 -4.175,-5.751 -7.775,-11.176 -9.53,-14.827 -3.287,-6.84 -5.761,-12.001 -7.474,-15.681 -1.781,-3.828 -2.746,-6.089 -2.97,-6.988 -0.103,-0.412 -0.767,-1.582 -0.913,-2.112 a 1.75,1.75 0 0 1 -0.029,-0.127 z m 43.122,59.424 c -1.565,0.01 -3.081,0.48 -4.025,0.836 -0.275,0.15 -0.554,0.257 -0.876,0.357 l -0.065,0.029 a 0.99,0.99 0 0 1 -0.31,0.081 c -0.846,0.236 -2.007,0.505 -3.983,1.283 -1.254,0.494 -2.849,1.204 -4.92,2.261 -0.484,0.246 -1.253,1.014 -1.972,1.882 -0.577,0.695 -1.115,1.461 -1.43,2.121 a 3.563,3.563 0 0 0 -0.211,0.645 c 3.22,1.566 7.56,2.275 11.648,2.522 3.879,0.235 7.537,0.047 9.834,-0.257 0.675,-0.09 1.227,-0.189 1.625,-0.291 0.164,-0.041 0.352,-0.111 0.4,-0.129 0.85,-0.724 1.101,-1.831 1.015,-3.041 -0.124,-1.763 -0.963,-3.74 -2.073,-5.357 a 13.366,13.366 0 0 0 -0.198,-0.282 0.867,0.867 0 0 1 -0.051,-0.053 c -0.035,-0.039 -0.149,-0.208 -0.334,-0.452 -0.286,-0.379 -0.803,-1.003 -1.553,-1.48 l -0.11,-0.051 -0.128,-0.057 a 3.386,3.386 0 0 1 -0.367,-0.05 1.261,1.261 0 0 1 -0.539,-0.264 8.008,8.008 0 0 0 -1.377,-0.253 z"
       style="stroke:#000000;stroke-width:1;stroke-dasharray:none;stroke-opacity:1"
       id="path46" />
    <path
       d="m 658.085,433.08 c 0.642,20.732 -5.684,45.332 -25.037,71.62 -14.798,20.101 -35.539,30.05 -31.717,28.35 1.09,-0.485 0.81,-0.786 2.173,-1.694 0.864,-0.576 -0.511,1.696 -0.663,2.307 -0.435,1.745 -3.755,8.708 -10.388,22.509 -3.992,8.304 -17.63,25.849 -25.632,35.354 -0.017,0.02 -3.038,-1.505 -6.001,-1.292 -3.044,0.22 -4.538,3.254 -4.384,2.833 0.886,-2.422 5.911,-3.98 9.392,-1.953 1.445,0.841 2.918,0.322 10.199,4.036 1.426,0.727 5.207,5.342 3.775,6.061 -8.116,4.072 -23.456,2.761 -24.555,1.851 -2.437,-2.018 -1.277,-6.417 0.871,-9.546 1.141,-1.663 1.931,-2.284 2.64,-2.659 0.454,-0.24 1.22,0.317 0.889,-1.52 -1.9,-10.548 -2.839,-24.874 -7.559,-46.74 -0.053,-0.245 3.691,1.389 6.171,2.295 3.199,1.169 8.862,0.137 9.694,-0.119 0.996,-0.306 2.852,-1.093 2.631,-0.981 -2.289,1.164 -6.084,1.78 -7.31,1.702 -2.539,-0.163 -3.055,-0.123 -4.286,-0.382 -0.703,-0.148 -1.43,-0.546 -3.268,-0.969 -8.238,-1.896 -18.907,-14.114 -22.37,-75.709"
       fill="#fffef4"
       style="stroke:#000000;stroke-width:1;stroke-dasharray:none;stroke-opacity:1"
       id="path48" />
    <path
       d="m 603.797,530.429 c 3.77,-2.409 10.258,-6.874 17.044,-13.276 3.901,-3.681 7.902,-8.003 11.54,-12.944 8.522,-11.575 14.505,-22.82 18.469,-33.548 4.973,-13.459 6.766,-26.102 6.412,-37.555 a 0.82339495,0.82339495 0 1 1 1.646,-0.051 c 0.361,11.642 -1.455,24.496 -6.508,38.179 -4.011,10.858 -10.061,22.241 -18.685,33.957 -5.824,7.912 -12.56,14.265 -18.38,18.967 a 118.96,118.96 0 0 1 -10.844,7.798 c -0.221,0.583 -0.752,1.543 -0.843,1.908 -0.224,0.899 -1.19,3.161 -2.971,6.988 -1.713,3.68 -4.187,8.841 -7.474,15.681 -1.755,3.651 -5.354,9.077 -9.53,14.827 -5.047,6.95 -10.936,14.381 -15.382,19.712 0.732,0.194 1.69,0.471 3.048,1.006 1.292,0.508 2.935,1.238 5.069,2.326 0.963,0.492 2.94,2.587 3.912,4.314 0.417,0.74 0.643,1.43 0.638,1.93 -0.007,0.612 -0.272,1.056 -0.78,1.311 -3.416,1.715 -8.075,2.515 -12.466,2.781 -4.828,0.293 -9.326,-0.054 -11.444,-0.476 -0.827,-0.164 -1.357,-0.391 -1.556,-0.555 -1.288,-1.067 -1.777,-2.675 -1.65,-4.479 0.144,-2.033 1.084,-4.324 2.364,-6.189 0.094,-0.138 0.187,-0.27 0.277,-0.394 0.332,-0.788 1.024,-1.513 1.943,-2.081 0.252,-0.187 0.489,-0.33 0.719,-0.452 0.056,-0.029 0.114,-0.054 0.174,-0.075 a 5.27,5.27 0 0 1 0.329,-0.159 3.896,3.896 0 0 0 -0.048,-0.394 c -1.3,-7.213 -2.151,-16.192 -4.067,-28.139 a 349.224,349.224 0 0 0 -3.418,-18.238 c -3.588,-2.449 -7.347,-7.491 -10.591,-17.62 -3.624,-11.317 -6.673,-29.119 -8.242,-57.007 a 0.85,0.85 0 1 1 1.697,-0.095 c 1.554,27.68 4.562,45.352 8.158,56.585 3.114,9.729 6.611,14.523 9.978,16.78 0.152,0.03 0.376,0.09 0.654,0.188 1.164,0.407 3.712,1.485 5.56,2.16 0.179,0.065 0.366,0.123 0.56,0.173 l 0.053,0.012 c 0.444,0.094 0.788,0.145 1.181,0.182 0.508,0.048 1.092,0.073 2.034,0.126 a 27.012,27.012 0 0 0 4.897,-0.521 l 0.218,-0.056 0.223,-0.06 0.19,-0.054 c 0.703,-0.233 1.689,-0.633 2.139,-0.811 0.166,-0.066 0.278,-0.108 0.309,-0.117 0.202,-0.06 0.335,-0.034 0.379,-0.027 a 0.8,0.8 0 0 1 0.57,0.363 0.82,0.82 0 0 1 0.139,0.568 c -0.013,0.106 -0.041,0.345 -0.31,0.562 -0.02,0.016 -0.07,0.057 -0.165,0.105 -0.745,0.379 -1.641,0.705 -2.563,0.97 -0.07,0.024 -0.138,0.045 -0.202,0.065 a 5.847,5.847 0 0 1 -0.427,0.107 c -0.191,0.049 -0.382,0.095 -0.572,0.139 -1.676,0.386 -3.255,0.557 -3.982,0.511 -0.339,-0.022 -0.643,-0.04 -0.917,-0.056 l -0.182,0.001 c -1.126,-0.003 -2.254,-0.097 -3.247,-0.331 l -0.06,-0.012 c -0.522,-0.11 -1.058,-0.349 -2.019,-0.639 a 19.042,19.042 0 0 0 -1.264,-0.333 11.958,11.958 0 0 1 -2.237,-0.754 350.911,350.911 0 0 1 3.121,16.867 c 1.913,11.934 2.762,20.903 4.059,28.108 a 6.4,6.4 0 0 1 0.038,0.237 8.471,8.471 0 0 1 0.864,-0.046 c 1.628,-0.14 3.361,0.141 4.846,0.997 0.13,0.05 0.25,0.097 0.356,0.141 4.472,-5.336 10.555,-12.992 15.746,-20.137 4.105,-5.652 7.653,-10.979 9.378,-14.568 3.284,-6.832 5.756,-11.987 7.467,-15.662 1.589,-3.414 2.517,-5.52 2.81,-6.491 a 5.373,5.373 0 0 1 -0.31,0.15 5.66,5.66 0 0 1 -0.545,0.222 c -0.66,0.19 -0.936,-0.302 -0.996,-0.422 -0.06,-0.117 -0.284,-0.616 0.233,-1.037 0.101,-0.083 0.632,-0.401 1.513,-0.942 0.234,-0.243 0.53,-0.54 1.169,-0.966 0.297,-0.197 0.549,-0.252 0.754,-0.235 z m -42.33,60.62 a 8.303,8.303 0 0 0 -1.377,0.253 1.25,1.25 0 0 1 -0.539,0.264 c -0.094,0.022 -0.261,0.04 -0.367,0.05 l -0.128,0.057 -0.11,0.052 c -0.749,0.477 -1.267,1.1 -1.553,1.479 -0.184,0.244 -0.298,0.413 -0.334,0.452 a 0.65,0.65 0 0 1 -0.051,0.053 c -0.065,0.09 -0.13,0.184 -0.198,0.282 -1.11,1.617 -1.948,3.594 -2.073,5.358 -0.085,1.21 0.165,2.316 1.015,3.041 0.048,0.018 0.236,0.087 0.4,0.129 0.398,0.102 0.951,0.2 1.626,0.29 2.297,0.305 5.954,0.492 9.833,0.257 4.09,-0.247 8.432,-0.956 11.653,-2.524 a 1.98,1.98 0 0 0 -0.085,-0.337 5.908,5.908 0 0 0 -0.534,-1.026 13.516,13.516 0 0 0 -1.026,-1.401 c -0.72,-0.868 -1.489,-1.636 -1.972,-1.882 -2.072,-1.057 -3.666,-1.767 -4.921,-2.261 -1.976,-0.777 -3.137,-1.047 -3.983,-1.283 a 0.978,0.978 0 0 1 -0.309,-0.081 l -0.066,-0.028 a 4.604,4.604 0 0 1 -0.876,-0.358 c -0.944,-0.356 -2.46,-0.825 -4.025,-0.836 z"
       style="stroke:#000000;stroke-width:1;stroke-dasharray:none;stroke-opacity:1"
       id="path50" />
    <path
       d="m 570.611,351.871 c -3.163,-1.459 -78.162,5.809 -83.499,6.995 -13.865,3.082 -27.879,6.463 -41.066,11.824 -12.028,4.89 -23.756,10.781 -35.226,16.853 -10.601,5.613 -28.946,13.564 -36.281,23.833 -4.697,6.576 -0.629,17.005 8.702,16.876 3.879,-0.054 13.694,-5.359 13.604,-11.36 -0.028,-1.814 1.737,-6.308 -5.344,-5.049 -0.384,0.069 -2.652,3.798 -5.793,5.914 -3.732,2.515 -9.268,2.769 -8.805,2.745 0.889,-0.044 1.953,-0.078 3.201,-0.414 1.885,-0.505 3.961,-1.084 5.604,-2.331 4.67,-3.543 5.241,-7.233 8.51,-8.59 5.045,-2.094 31.482,-10.124 54.056,-12.69 4.085,-0.465 8.143,-0.841 12.059,-1.093"
       fill="#fffef4"
       style="stroke:#000000;stroke-width:1;stroke-dasharray:none;stroke-opacity:1"
       id="path52" />
    <path
       d="m 393.171,410.801 c 1.78,-0.084 2.876,0.3 3.545,0.855 0.859,0.712 1.138,1.747 1.146,2.821 0.007,0.89 -0.185,1.796 -0.176,2.402 0.039,2.578 -1.54,5.068 -3.795,7.109 -3.354,3.038 -8.158,5.07 -10.638,5.104 -4.942,0.068 -8.514,-2.61 -10.279,-6.189 -1.83,-3.712 -1.698,-8.402 0.882,-12.014 3.042,-4.257 7.931,-8.134 13.399,-11.607 7.842,-4.98 16.872,-9.141 23.174,-12.477 5.743,-3.04 11.552,-6.035 17.43,-8.882 5.886,-2.851 11.842,-5.553 17.873,-8.004 5.303,-2.156 10.739,-3.993 16.246,-5.62 8.231,-2.431 16.619,-4.391 24.954,-6.243 3.405,-0.756 35.114,-3.987 58.517,-5.853 10.048,-0.801 18.567,-1.351 22.663,-1.348 1.535,0 2.52,0.118 2.844,0.268 a 0.824,0.824 0 1 1 -0.69,1.496 c -0.07,-0.033 -0.204,-0.038 -0.391,-0.057 -0.565,-0.055 -1.444,-0.07 -2.59,-0.053 -5.577,0.081 -17.274,0.936 -30.057,2.033 -21.877,1.879 -46.936,4.467 -49.936,5.134 -8.298,1.845 -16.649,3.797 -24.843,6.218 -5.454,1.612 -10.837,3.432 -16.089,5.567 -5.998,2.439 -11.921,5.128 -17.774,7.964 -5.86,2.839 -11.65,5.825 -17.375,8.857 -6.27,3.32 -15.256,7.458 -23.058,12.414 -5.27,3.348 -10.001,7.064 -12.932,11.168 -2.21,3.095 -2.31,7.116 -0.741,10.297 1.501,3.043 4.547,5.309 8.75,5.251 2.231,-0.031 6.515,-1.937 9.532,-4.67 1.868,-1.692 3.274,-3.701 3.241,-5.837 -0.009,-0.61 0.183,-1.521 0.176,-2.415 -0.005,-0.574 -0.078,-1.157 -0.538,-1.538 -0.624,-0.517 -1.766,-0.652 -3.776,-0.317 -0.09,0.102 -0.245,0.282 -0.385,0.457 -0.589,0.735 -1.5,1.921 -2.644,3.096 -0.775,0.797 -1.655,1.587 -2.612,2.237 l -0.006,0.005 c -0.706,0.536 -1.485,0.959 -2.296,1.308 -1.177,0.505 -2.424,0.85 -3.599,1.165 -0.481,0.129 -0.936,0.217 -1.367,0.279 -0.747,0.107 -1.416,0.133 -2.011,0.163 l -0.027,10e-4 c -1.399,0.095 -1.939,-0.259 -1.901,-0.667 -0.185,-0.384 0.201,-0.82 1.502,-0.985 0.098,-0.015 0.2,-0.026 0.304,-0.032 l 0.052,-0.004 c 0.119,-0.01 0.399,-0.034 0.799,-0.085 1.572,-0.2 4.983,-0.793 7.527,-2.491 3.493,-2.652 4.655,-5.394 6.42,-7.148 0.65,-0.646 1.372,-1.173 2.273,-1.547 3.04,-1.263 13.808,-4.674 26.835,-7.757 8.687,-2.055 18.378,-3.965 27.449,-4.997 2.025,-0.231 4.043,-0.439 6.041,-0.622 a 226.8,226.8 0 0 1 6.059,-0.475 0.85,0.85 0 1 1 0.109,1.696 c -1.973,0.127 -3.982,0.286 -6.013,0.471 -1.986,0.181 -3.992,0.388 -6.005,0.617 -9.004,1.023 -18.626,2.92 -27.25,4.959 -12.9,3.051 -23.566,6.419 -26.577,7.669 a 5.03,5.03 0 0 0 -1.371,0.853 z"
       style="stroke:#000000;stroke-width:1;stroke-dasharray:none;stroke-opacity:1"
       id="path54" />
    <path
       d="m 545.39,353.386 c 1.269,-1.005 51.673,-30.695 74.413,-40.879 9.42,-4.219 19.895,-8.961 29.764,-11.93 2.685,-0.807 7.979,-1.699 7.979,-1.757 0,-0.81 -2.768,-2.972 -3.143,-3.479 -0.901,-1.216 -3.365,-6.193 1.14,-10.08 7.983,-6.887 30.132,4.656 20.418,14.487 -7.818,7.913 -9.065,2.074 -14.689,5.678 -16.378,10.494 -58.523,41.616 -84.616,63.981 -2.969,2.544 -5.816,5.385 -8.424,8.231 -5.277,5.761 -81.183,14.988 -83.53,18.384"
       fill="#fffef4"
       style="stroke:#000000;stroke-width:1;stroke-dasharray:none;stroke-opacity:1"
       id="path56" />
    <path
       d="m 656.199,298.251 a 6.147,6.147 0 0 0 -0.328,-0.36 c -0.855,-0.855 -1.91,-1.748 -2.137,-2.055 -0.606,-0.818 -1.854,-3.171 -1.621,-5.858 0.152,-1.749 0.913,-3.646 2.886,-5.347 2.124,-1.834 5.169,-2.495 8.408,-2.236 4.182,0.335 8.683,2.198 11.783,4.832 2.582,2.193 4.184,4.925 4.012,7.745 -0.107,1.771 -0.902,3.598 -2.647,5.363 -2.272,2.3 -4.026,3.481 -5.484,4.086 -1.651,0.683 -2.95,0.656 -4.226,0.58 -1.496,-0.091 -2.953,-0.261 -5.122,1.129 -8.942,5.731 -25.573,17.619 -43.073,30.869 -14.516,10.991 -29.628,22.918 -41.445,33.048 a 85.685,85.685 0 0 0 -4.292,3.952 110.285,110.285 0 0 0 -4.058,4.21 c -0.525,0.573 -1.659,1.211 -3.325,1.839 -2.948,1.11 -7.669,2.305 -13.392,3.528 -18.585,3.971 -47.828,8.274 -60.77,11.169 -2.313,0.518 -4.094,0.986 -5.181,1.401 -0.368,0.14 -0.763,0.366 -0.811,0.394 a 0.85,0.85 0 0 1 -1.373,-1.001 c 0.192,-0.278 0.706,-0.649 1.578,-0.981 1.136,-0.434 2.997,-0.93 5.416,-1.471 12.945,-2.894 42.197,-7.195 60.787,-11.164 5.62,-1.2 10.257,-2.366 13.151,-3.456 1.323,-0.498 2.257,-0.944 2.675,-1.399 a 112.865,112.865 0 0 1 4.12,-4.273 87.7,87.7 0 0 1 4.377,-4.029 c 11.841,-10.147 26.984,-22.096 41.529,-33.107 17.545,-13.28 34.22,-25.194 43.184,-30.937 2.107,-1.35 3.658,-1.495 5.123,-1.445 1.394,0.048 2.7,0.34 4.488,-0.401 1.318,-0.546 2.883,-1.638 4.936,-3.715 1.304,-1.32 1.984,-2.666 2.142,-3.994 0.396,-3.34 -2.406,-6.443 -6.099,-8.54 -2.871,-1.63 -6.32,-2.64 -9.441,-2.619 -2.267,0.015 -4.36,0.571 -5.882,1.884 -1.566,1.351 -2.194,2.842 -2.314,4.231 -0.189,2.165 0.81,4.063 1.298,4.722 0.278,0.376 1.885,1.664 2.674,2.626 0.429,0.523 0.633,1.023 0.633,1.349 0,0.056 -0.03,0.668 -0.714,0.833 -0.125,0.031 -0.391,0.084 -0.757,0.155 -1.564,0.304 -5.08,0.958 -7.101,1.566 -3.946,1.187 -7.99,2.659 -12.024,4.268 -6.02,2.4 -12.018,5.105 -17.64,7.622 -7.821,3.502 -18.921,9.317 -30.164,15.474 -21.364,11.701 -43.247,24.637 -44.076,25.294 a 0.825,0.825 0 0 1 -1.023,-1.292 c 0.833,-0.66 22.825,-13.685 44.305,-25.453 11.285,-6.183 22.428,-12.02 30.28,-15.537 5.642,-2.527 11.661,-5.241 17.703,-7.651 4.079,-1.628 8.169,-3.117 12.16,-4.318 1.913,-0.575 5.134,-1.195 6.872,-1.53 z"
       style="stroke:#000000;stroke-width:1;stroke-dasharray:none;stroke-opacity:1"
       id="path58" />
    <path
       d="m 558.273,362.212 c 55.665,9.495 37.184,18.777 46.778,19.897 16.679,1.946 52.106,21.952 54.689,50.085 3.569,38.871 -52.5,48.488 -57.475,49.982 -28.769,8.635 -49.651,16.641 -80.383,14.396 -21.217,-1.549 -41.702,-9.253 -61.548,-16.279 -14.372,-5.089 -45.617,-10.358 -51.983,-24.35 -26.103,-57.367 38.24,-59.273 40.96,-64.885 8.839,-18.237 33.11,-23.555 32.978,-23.699"
       fill="#fffef4"
       style="stroke:#000000;stroke-width:1;stroke-dasharray:none;stroke-opacity:1"
       id="path60" />
    <path
       d="m 481.91,366.598 a 0.852,0.852 0 0 1 1.005,0.186 c 0.252,0.274 0.318,0.591 0.134,0.958 -0.037,0.075 -0.134,0.277 -0.438,0.41 -0.047,0.02 -0.152,0.058 -0.312,0.106 -0.356,0.106 -1.106,0.313 -2.154,0.64 -3.998,1.246 -12.379,4.246 -19.729,10.057 -4.08,3.225 -7.843,7.319 -10.342,12.473 -0.246,0.508 -0.843,1.042 -1.803,1.53 -1.507,0.766 -4.024,1.546 -7.135,2.493 -9.082,2.764 -23.395,7.007 -31.693,17.169 -7.23,8.855 -9.773,22.205 -0.324,42.974 2.044,4.494 6.773,8.021 12.645,10.957 12.182,6.093 29.274,9.558 38.851,12.949 11.879,4.207 23.987,8.657 36.345,11.879 8.215,2.142 16.541,3.741 24.984,4.358 12.018,0.878 22.52,0.179 32.581,-1.515 15.571,-2.621 30.087,-7.619 47.5,-12.845 3.299,-0.99 29.241,-5.544 45.039,-19.98 7.729,-7.064 13.007,-16.518 11.849,-29.128 -1.18,-12.861 -9.371,-23.978 -19.414,-32.405 -11.614,-9.745 -25.726,-15.905 -34.544,-16.935 -2.717,-0.317 -3.522,-1.245 -4.099,-2.526 -0.485,-1.075 -0.712,-2.533 -2.239,-4.236 -1.525,-1.702 -4.32,-3.631 -9.819,-5.721 -6.201,-2.357 -15.763,-4.88 -30.664,-7.422 a 0.824,0.824 0 0 1 0.277,-1.624 c 15.052,2.567 24.709,5.123 30.974,7.503 8.965,3.407 11.187,6.548 12.205,8.857 0.294,0.667 0.48,1.268 0.698,1.792 0.19,0.458 0.395,0.85 0.82,1.138 0.438,0.297 1.073,0.485 2.039,0.598 9.035,1.054 23.515,7.323 35.417,17.307 10.379,8.707 18.781,20.232 20.002,33.523 1.213,13.202 -4.288,23.11 -12.38,30.506 -16.033,14.654 -42.333,19.345 -45.682,20.35 -17.485,5.25 -32.064,10.264 -47.701,12.898 -10.184,1.715 -20.816,2.424 -32.982,1.536 -8.544,-0.624 -16.97,-2.238 -25.284,-4.405 -12.405,-3.233 -24.56,-7.696 -36.484,-11.918 -9.625,-3.407 -26.798,-6.903 -39.043,-13.026 -6.266,-3.133 -11.245,-6.972 -13.427,-11.766 -9.84,-21.624 -6.978,-35.522 0.55,-44.743 8.523,-10.439 23.18,-14.88 32.51,-17.721 2.988,-0.91 5.412,-1.647 6.86,-2.383 0.524,-0.266 0.911,-0.48 1.045,-0.758 3.307,-6.824 8.721,-11.884 14.258,-15.557 6.851,-4.543 13.88,-6.955 17.237,-7.981 0.884,-0.27 1.51,-0.443 1.807,-0.532 z"
       style="stroke:#000000;stroke-width:1;stroke-dasharray:none;stroke-opacity:1"
       id="path62" />
    <path
       d="m 499.189,406.431 c 0.609,-0.783 2.351,-2.041 4.924,-3.421 5.281,-2.832 14,-6.055 24.037,-6.457 9.253,-0.371 19.63,1.662 29.465,8.632 a 0.851,0.851 0 0 0 0.983,-1.387 c -10.19,-7.209 -20.936,-9.309 -30.515,-8.918 -10.339,0.423 -19.315,3.753 -24.752,6.674 -2.863,1.539 -4.764,2.993 -5.443,3.866 a 0.824,0.824 0 0 0 1.301,1.011 z"
       style="stroke:#000000;stroke-width:1;stroke-dasharray:none;stroke-opacity:1"
       id="path64" />
    <ellipse
       cx="525.87799"
       cy="345.94601"
       rx="20.573"
       ry="15.896"
       fill="#fffef4"
       style="stroke:#000000;stroke-width:1;stroke-dasharray:none;stroke-opacity:1"
       id="ellipse66" />
    <path
       d="m 525.878,329.2 c -5.397,0.001 -10.325,1.563 -14.079,4.124 -4.517,3.081 -7.339,7.605 -7.338,12.622 0.002,5.016 2.824,9.538 7.342,12.617 3.754,2.558 8.68,4.118 14.075,4.116 5.394,-10e-4 10.319,-1.562 14.072,-4.122 4.513,-3.078 7.332,-7.598 7.331,-12.611 -10e-4,-5.012 -2.821,-9.53 -7.335,-12.606 -3.752,-2.557 -8.677,-4.115 -14.068,-4.114 z m 0,1.673 c 5.034,0.002 9.634,1.445 13.136,3.834 4.034,2.751 6.608,6.759 6.607,11.239 -10e-4,4.479 -2.577,8.485 -6.611,11.234 -3.501,2.386 -8.101,3.827 -13.132,3.826 -5.031,-0.002 -9.629,-1.444 -13.129,-3.832 -4.03,-2.749 -6.602,-6.752 -6.601,-11.228 10e-4,-4.475 2.575,-8.476 6.605,-11.223 3.499,-2.385 8.096,-3.824 13.125,-3.823 z"
       style="stroke:#000000;stroke-width:1;stroke-dasharray:none;stroke-opacity:1"
       id="path68" />
    <g
       style="stroke:#000000;stroke-width:1;stroke-dasharray:none;stroke-opacity:1"
       id="g80">
      <ellipse
         cx="519.49597"
         cy="342.133"
         rx="5.178"
         ry="3.0420001"
         fill="#fffef4"
         style="stroke:#000000;stroke-width:1;stroke-dasharray:none;stroke-opacity:1"
         id="ellipse70" />
      <path
         d="m 519.496,338.591 c -1.591,10e-4 -3.024,0.404 -4.034,1.036 -1.039,0.649 -1.64,1.546 -1.64,2.506 10e-4,0.959 0.603,1.855 1.641,2.503 1.011,0.63 2.443,1.032 4.033,1.031 1.589,-10e-4 3.021,-0.404 4.031,-1.035 1.035,-0.648 1.636,-1.542 1.635,-2.499 0,-0.957 -0.601,-1.851 -1.637,-2.497 -1.01,-0.63 -2.441,-1.031 -4.029,-1.03 z m 0,0.984 c 1.384,0.001 2.634,0.337 3.513,0.887 0.709,0.443 1.177,1.016 1.176,1.671 0,0.654 -0.469,1.226 -1.177,1.668 -0.88,0.548 -2.129,0.882 -3.512,0.882 -1.382,-10e-4 -2.631,-0.337 -3.509,-0.886 -0.706,-0.441 -1.173,-1.012 -1.172,-1.664 0,-0.653 0.468,-1.222 1.174,-1.662 0.878,-0.548 2.126,-0.881 3.507,-0.88 z"
         style="stroke:#000000;stroke-width:1;stroke-dasharray:none;stroke-opacity:1"
         id="path72" />
      <ellipse
         cx="533.90198"
         cy="342.133"
         rx="5.178"
         ry="3.0420001"
         fill="#fffef4"
         style="stroke:#000000;stroke-width:1;stroke-dasharray:none;stroke-opacity:1"
         id="ellipse74" />
      <path
         d="m 533.902,338.591 c -1.59,10e-4 -3.023,0.404 -4.034,1.036 -1.039,0.649 -1.64,1.546 -1.639,2.506 0,0.959 0.602,1.855 1.64,2.503 1.011,0.63 2.444,1.032 4.033,1.031 1.589,-10e-4 3.021,-0.404 4.031,-1.035 1.035,-0.648 1.636,-1.542 1.635,-2.499 0,-0.957 -0.601,-1.851 -1.637,-2.497 -1.01,-0.63 -2.441,-1.031 -4.029,-1.03 z m 0,0.984 c 1.384,0.001 2.634,0.337 3.513,0.887 0.709,0.443 1.177,1.016 1.177,1.671 -10e-4,0.654 -0.47,1.226 -1.178,1.668 -0.88,0.548 -2.129,0.882 -3.512,0.882 -1.382,-10e-4 -2.63,-0.337 -3.509,-0.886 -0.706,-0.441 -1.173,-1.012 -1.172,-1.664 0,-0.653 0.468,-1.222 1.174,-1.662 0.878,-0.548 2.126,-0.881 3.507,-0.88 z"
         style="stroke:#000000;stroke-width:1;stroke-dasharray:none;stroke-opacity:1"
         id="path76" />
      <path
         d="m 524.049,340.386 c 0.057,-0.07 0.133,-0.138 0.222,-0.199 0.086,-0.06 0.187,-0.113 0.287,-0.159 0.223,-0.102 0.469,-0.187 0.729,-0.254 a 5.17,5.17 0 0 1 0.748,-0.132 6.596,6.596 0 0 1 1.133,-0.019 c 0.403,0.03 0.795,0.103 1.151,0.226 0.107,0.036 0.537,0.318 0.726,0.426 a 0.5,0.5 0 0 1 -0.171,0.969 0.683,0.683 0 0 1 -0.325,-0.102 c -0.146,-0.084 -0.473,-0.324 -0.557,-0.354 a 3.62,3.62 0 0 0 -0.9,-0.179 5.508,5.508 0 0 0 -0.961,0.01 c -0.207,0.02 -0.411,0.054 -0.604,0.102 a 3.383,3.383 0 0 0 -0.568,0.194 l -0.156,0.082 a 1.025,1.025 0 0 1 -0.024,0.027 0.483,0.483 0 0 1 -0.317,0.266 0.47,0.47 0 0 1 -0.338,-0.024 0.458,0.458 0 0 1 -0.287,-0.383 0.493,0.493 0 0 1 0.064,-0.317 c 0.022,-0.039 0.129,-0.159 0.148,-0.18 z m 0.193,-0.039 h -10e-4 l 0.012,-0.002 z m 0.027,-0.005 -0.004,0.001 0.022,-0.003 z m 0.062,-0.005 a 0.349,0.349 0 0 0 -0.044,0.003 l 0.025,-0.002 z m 0.007,0 h 0.007 z m -9.819,1.547 a 4.753,4.753 0 0 0 -0.461,-0.529 c -0.339,-0.342 -0.736,-0.671 -1.069,-1.008 -0.502,-0.509 -0.984,-1.035 -1.535,-1.533 a 9.685,9.685 0 0 0 -1.185,-0.923 c -0.535,-0.351 -1.323,-0.594 -1.968,-0.561 -0.673,0.034 -1.196,0.348 -1.366,0.97 a 0.5,0.5 0 1 0 0.965,0.262 c 0.033,-0.123 0.137,-0.18 0.257,-0.21 0.127,-0.032 0.272,-0.036 0.422,-0.024 a 2.62,2.62 0 0 1 1.148,0.391 c 0.395,0.257 0.745,0.537 1.068,0.827 0.539,0.483 1.01,0.995 1.501,1.489 0.334,0.336 0.732,0.664 1.073,1.005 0.137,0.137 0.263,0.275 0.369,0.418 a 0.485,0.485 0 0 0 0.781,-0.574 z m 25.222,0.14 a 0.485,0.485 0 0 1 -0.692,0.238 c -0.046,-0.026 -0.371,-0.294 -0.176,-0.671 0.035,-0.068 0.137,-0.233 0.144,-0.246 0.11,-0.211 0.214,-0.42 0.339,-0.626 0.088,-0.144 0.186,-0.286 0.301,-0.426 a 12.18,12.18 0 0 1 1.301,-1.364 c 0.46,-0.408 0.978,-0.79 1.562,-1.111 0.331,-0.181 0.719,-0.368 1.15,-0.472 0.28,-0.068 0.577,-0.102 0.888,-0.081 a 0.5,0.5 0 1 1 -0.067,0.997 2.052,2.052 0 0 0 -0.738,0.093 4.132,4.132 0 0 0 -0.758,0.334 7.595,7.595 0 0 0 -1.386,0.977 c -0.459,0.404 -0.855,0.835 -1.201,1.25 a 2.628,2.628 0 0 0 -0.222,0.312 c -0.114,0.186 -0.209,0.376 -0.309,0.567 z"
         style="stroke:#000000;stroke-width:1;stroke-dasharray:none;stroke-opacity:1"
         id="path78" />
    </g>
    <path
       d="m 510.403,325.882 a 0.82,0.82 0 0 1 -0.22,-0.272 c -1.26,-2.493 -0.344,-3.47 1.515,-0.758 0.412,0.602 1.562,2.45 1.731,2.756 0.826,1.495 1.722,2.948 2.561,4.433 0.367,0.649 0.723,1.305 1.059,1.972 a 0.85015307,0.85015307 0 0 1 -1.521,0.76 c -0.32,-0.644 -0.66,-1.277 -1.011,-1.904 -0.834,-1.494 -1.726,-2.956 -2.547,-4.46 a 71.26,71.26 0 0 0 -1.567,-2.527 z m 8.625,-4.207 c 0.271,1.904 1.33,4.55 2.047,7.136 0.279,1.003 0.503,1.997 0.594,2.929 a 0.85,0.85 0 1 0 1.691,-0.169 c -0.105,-1.023 -0.352,-2.114 -0.663,-3.214 -0.709,-2.509 -1.766,-5.069 -2.038,-6.918 a 0.824,0.824 0 1 0 -1.631,0.236 z m 10.636,0.151 c 0.116,0.969 -0.032,2.267 -0.289,3.646 -0.36,1.928 -0.947,4.004 -1.432,5.605 a 0.851,0.851 0 0 0 1.628,0.489 c 0.492,-1.655 1.084,-3.801 1.445,-5.792 0.284,-1.569 0.421,-3.048 0.283,-4.148 a 0.824,0.824 0 0 0 -1.635,0.2 z m 13.081,2.527 c -0.097,0.243 -0.752,1.888 -0.848,2.084 -0.703,1.443 -1.424,2.874 -2.119,4.318 a 81.742,81.742 0 0 0 -1.328,2.885 0.85016543,0.85016543 0 0 1 -1.558,-0.681 c 0.436,-0.99 0.897,-1.967 1.37,-2.938 0.704,-1.442 1.433,-2.872 2.144,-4.314 0.114,-0.232 0.618,-1.756 0.977,-2.295 0.245,-0.368 0.549,-0.505 0.744,-0.536 a 0.824,0.824 0 0 1 0.618,1.477 z"
       style="stroke:#000000;stroke-width:1;stroke-dasharray:none;stroke-opacity:1"
       id="path82" />
  </g>
</svg>
